<svg id="Layer_1" data-name="Layer 1" xmlns="http://www.w3.org/2000/svg" xmlns:xlink="http://www.w3.org/1999/xlink" version="1.1" viewBox="0 0 306 411.28">
<defs><style>.cls-1{fill:#e04339;}.cls-2{fill:#efa19c;}.cls-3,.cls-4{fill:none;}.cls-3{isolation:isolate;}.cls-5{fill:#fff;}.cls-6{fill:#e14339;}</style></defs>
<title>hq3</title>
<path class="cls-1" d="M0,429v-1c1.14-1.43.63-3.41,0.63-5.12q0-82.88,0-165.75c0-1.71.52-3.69-.63-5.12v-1c2.32-8.79,6.81-10.5,12.55-10.15,9.34,0.57,18.71.1,28.07,0.2,1.77,0,2.72-.26,2.77-3.59,0.1-6.32,2.39-10.46,6.31-12.46h74.54c4.27,2.1,6.26,6.79,6.4,13.44,0,1.89.41,2.59,1.69,2.59,17,0,33.92,0,50.89,0,0.84,0,1.87.27,1.81-1.82-0.19-7.31,2.55-11.41,6.56-14.17h62.77c3.77,2.1,6.76,5.44,6.91,12.14,0.07,3.4,1,3.95,2.93,3.93,10.86-.12,21.73-0.06,32.59-0.06,5.75,0,8,3.05,8.72,11.83,0,0.83-.13,1.65-0.13,2.48q0,84.29,0,168.57c0,1.4-.38,3,0.63,4.12v1c-1.46,5.1-3.64,9.1-7.19,11H7.19C4,437.61,1.54,434,0,429Z" transform="translate(0 -28.72)"/>
<path class="cls-2" d="M0,252c1.14,1.43.63,3.41,0.63,5.12q0,82.88,0,165.75c0,1.71.52,3.69-.63,5.12V252Z" transform="translate(0 -28.72)"/>
<path class="cls-2" d="M305.5,252.83l0.29-.15L306,253V428c-1-1.08-.63-2.72-0.63-4.12q0-84.29,0-168.57C305.36,254.48,305.45,253.66,305.5,252.83Z" transform="translate(0 -28.72)"/>
<path class="cls-3" transform="translate(0 -28.72)"/>
<path class="cls-4" d="M88.46,389.7V301H218v88.7H88.46Zm52.76-10.61c7.85,0,16,.09,24.11-0.1,1.11,0,2.19-1.4,3.29-2.15-1.13-.7-2.24-1.95-3.41-2-4.66-.24-9.35.11-14-0.2-2.27-.15-4.47-1.29-6.7-2,0.88-2.8,1-6.29,2.76-8.28,7.63-8.54,15.79-16.62,23.69-24.92,4.42-4.64,8.94-9.21,13-14.18a12.19,12.19,0,0,0,2.45-7.29c-0.13-9-7.3-15.68-16.8-15.71-25.09-.1-50.18,0-75.27,0-1.12,0-2.24.2-4.06,0.37,1.46,3.19,2.26,6.32,4.08,8.65,6.53,8.36,13.42,16.44,20.13,24.66,2.35,2.88,5,5.62,6.71,8.87,4,7.66,10.77,11.61,18.14,9.91,1.48-3.85-.93-4.65-3.93-5.29-5-1.08-8.95-3.42-9.43-10H148.1c0.58-5.32.58-5.45-3.36-5.53-6.42-.12-12.84.1-19.25-0.1-7.42-.22-11.09-3.36-12.05-10.72H139c6.61,0,13.23.06,19.84-.13,0.94,0,1.84-1.33,2.76-2-0.94-.69-1.79-1.69-2.84-2a15.68,15.68,0,0,0-4.06-.11c-14,0-28,.09-42,0C104,318.64,98.87,314,99.38,307c1.49-.11,3-0.33,4.54-0.33q32.09,0,64.19,0c5.91,0,10.65,1.89,13.18,7.66s-1,9.54-4.6,13.19c-9,9.14-18.09,18.22-27.07,27.39C143.31,361.29,136.81,367.72,141.21,379.08Zm43.2-29.31c0.8-3.61,1.13-9.29,2.27-9.47,4.08-.61,9-0.37,12.54,1.49,4,2.07,7,6.11,10.07,9.59,5.48,6.15,2.84,13.75,2.72,20.72,0,1-5.32,1.73-8.1,2.77-0.72.27-1.8,1.35-1.68,1.77,0.25,0.89,1.14,2.2,1.84,2.24a67.69,67.69,0,0,0,10.47,0c0.82-.07,2.09-1.78,2.13-2.77,0.53-12.78,1.31-24.81-10.56-34.89-7.61-6.47-14.82-6.06-22.94-5.95a3.53,3.53,0,0,0-2.37,2.5c-0.22,5.74-.11,11.5-0.11,17.39h15.64C196.06,351.06,196.06,351.06,184.41,349.78Zm0.79,38.54c6.06,0.08,11.35-4.85,11.51-10.7,0.17-6.32-4.95-12-10.88-12.09-5.54-.08-11.86,6.14-11.75,11.55A11.63,11.63,0,0,0,185.21,388.32Z" transform="translate(0 -28.72)"/>
<path class="cls-5" d="M141.21,379.08c-4.4-11.36,2.1-17.79,8.4-24.22,9-9.17,18.06-18.25,27.07-27.39,3.6-3.65,7.15-7.37,4.6-13.19s-7.26-7.67-13.18-7.66q-32.09,0-64.19,0c-1.53,0-3.05.22-4.54,0.33-0.51,7.07,4.62,11.67,13.27,11.75,14,0.13,28,0,42,0a15.68,15.68,0,0,1,4.06.11c1,0.29,1.9,1.29,2.84,2-0.92.71-1.82,2-2.76,2-6.61.19-13.22,0.13-19.84,0.13H113.44c1,7.35,4.63,10.49,12.05,10.72,6.41,0.19,12.84,0,19.25.1,3.94,0.07,3.94.2,3.36,5.53H125.94c0.49,6.63,4.39,9,9.43,10,3,0.64,5.41,1.44,3.93,5.29-7.37,1.7-14.15-2.25-18.14-9.91-1.69-3.24-4.37-6-6.71-8.87-6.71-8.22-13.6-16.3-20.13-24.66-1.82-2.33-2.62-5.46-4.08-8.65,1.82-.17,2.94-0.37,4.06-0.37,25.09,0,50.18-.07,75.27,0,9.5,0,16.67,6.69,16.8,15.71a12.19,12.19,0,0,1-2.45,7.29c-4,5-8.54,9.54-13,14.18-7.9,8.3-16.06,16.38-23.69,24.92-1.78,2-1.89,5.48-2.76,8.28,2.23,0.69,4.43,1.82,6.7,2,4.65,0.31,9.34,0,14,.2,1.17,0.06,2.27,1.31,3.41,2-1.09.75-2.17,2.13-3.29,2.15C157.19,379.17,149.06,379.08,141.21,379.08Z" transform="translate(0 -28.72)"/>
<path class="cls-5" d="M184.41,349.78c11.65,1.28,11.65,1.28,11.92,5.35H180.69c0-5.89-.11-11.65.11-17.39a3.53,3.53,0,0,1,2.37-2.5c8.12-.11,15.33-0.52,22.94,5.95,11.87,10.09,11.08,22.11,10.56,34.89,0,1-1.31,2.7-2.13,2.77a67.69,67.69,0,0,1-10.47,0c-0.7,0-1.59-1.36-1.84-2.24-0.12-.41,1-1.5,1.68-1.77,2.79-1,8.09-1.82,8.1-2.77,0.12-7,2.75-14.56-2.72-20.72-3.09-3.48-6.11-7.52-10.07-9.59-3.57-1.87-8.46-2.1-12.54-1.49C185.54,340.48,185.22,346.17,184.41,349.78Z" transform="translate(0 -28.72)"/>
<path class="cls-5" d="M185.21,388.32a11.63,11.63,0,0,1-11.13-11.23c-0.11-5.42,6.21-11.63,11.75-11.55,5.93,0.08,11,5.77,10.88,12.09C196.56,383.47,191.26,388.4,185.21,388.32Z" transform="translate(0 -28.72)"/>


<path class="cls-6" id="hqBar1" d="M47.83,71.52A8.81,8.81,0,0,0,60.17,84.1,132.32,132.32,0,0,1,247.1,85.88a8.81,8.81,0,1,0,12.58-12.34C201.82,14.57,106.78,13.68,47.83,71.52Z" transform="translate(0 -28.72)"/>

  <animate
    xlink:href="#hqBar1"
	attributeName="display"
    values="none;none;inline;none"
    keyTimes="0;0.1;0.65;1"
    dur="9s"
    begin="0s"
    repeatCount="indefinite" />


<path class="cls-6" id="hqBar2" d="M84.86,108.43A8.81,8.81,0,1,0,97.2,121a79.39,79.39,0,0,1,112.15,1.07,8.81,8.81,0,0,0,12.58-12.34A97,97,0,0,0,84.86,108.43Z" transform="translate(0 -28.72)"/>

  <animate
    xlink:href="#hqBar2"
	attributeName="display"
    values="none;none;inline;none"
    keyTimes="0;0.1;0.63;1"
    dur="9s"
    begin="0s"
    repeatCount="indefinite" />


<path class="cls-6" id="hqBar3" d="M121.88,146.17a8.81,8.81,0,0,0,12.34,12.58,26.46,26.46,0,0,1,37.38.36,8.81,8.81,0,1,0,12.58-12.34A44.1,44.1,0,0,0,121.88,146.17Z" transform="translate(0 -28.72)"/>

  <animate
    xlink:href="#hqBar3"
	attributeName="display"
    values="none;none;inline;none"
    keyTimes="0;0.1;0.61;1"
    dur="9s"
    begin="0s"
    repeatCount="indefinite" />

</svg>

