<?xml version="1.0" encoding="UTF-8" standalone="no"?>
<svg id="Layer_1" data-name="Layer 1" xmlns="http://www.w3.org/2000/svg" xmlns:xlink="http://www.w3.org/1999/xlink" version="1.1" viewBox="0 0 120 210.25">
	<defs>
		<style>.cls-1{fill:#e14339;}</style>
	</defs>
<title>red-truck6</title>
<polygon class="cls-1" points="60.02 142.23 60.02 142.24 59.55 142.24 60.02 142.23"/>
<rect class="cls-1" x="59" y="162.24" width="1" height="0.01"/>
<polygon class="cls-1" points="60 166.25 60 166.35 59 166.34 59 166.25 60 166.25"/>

<path class="cls-1" d="M60,174.25v0.11H59v-0.09h1Z"/>

<path class="cls-1" d="M116.64,90.25q-56.64.25-113.28,0C0,90.23-.06,91.36,0,94,0,114.44,0,134.9,0,155.36a9.73,9.73,0,0,0,5.28-8.81c0.29-7.31,1.31-14.58,1.84-21.89,1-13.49,8.12-21,21.56-22.24,2-.19,3.32-0.2,3.57-2.79,0.32-3.31,2.21-5.53,5.92-5.45A5.27,5.27,0,0,1,43.7,99.5c0.21,3.06,1.92,2.87,4,2.86l11.32,0v3.86c-4.82,0-9.65,0-14.46.18-3.79.1-5.11-1-4.61-4.7,0.2-1.5.57-3.79-1.93-3.76s-2.18,2.23-1.94,3.8c0.55,3.77-.89,4.73-4.62,4.66-10.28-.17-17.07,6.17-18.33,16.52-0.59,4.79-1,9.61-1.83,14.35-0.64,3.68-.08,5.2,4.26,5.12,14.49-.29,29-0.12,43.46-0.11v4q-23,0-46-.06c-2.46,0-3.12.94-3.23,3.17-0.15,3.24-1.1,6.13-4.25,7.89-2.15,1.19-2.22,3.42-2.57,5.61-1.06,6.78-.3,13.83-3,20.37v5c2.22,2,3.31,5.29,6.82,5.94,1.9,0.35,1.27,2.17,1.14,3.29-0.7,6,1.68,10.18,7,12.77h6c5-2.65,7.79-6.59,7-12.47-0.39-2.89.85-3.6,3.61-3.58q28.4,0.15,56.81,0c2.77,0,4,.71,3.6,3.58-0.81,5.9,1.94,9.84,7,12.47h6c5.06-2.53,7.72-6.41,7-12.27-0.25-2-.2-3.89,2.53-4.42,2.88-.56,3.42-3.75,5.46-5.31v-4c-2.42-6.92-1.86-14.26-3-21.37-0.32-2-.18-4.16-2.18-5.28-3.47-1.95-4.58-5.1-4.67-8.73-0.06-2.29-1.23-2.64-3.18-2.63q-23.48,0-47,0v-3.92h0v-0.1c15,0,29.94-.14,44.91.09,3.83,0.06,4.43-1.24,3.86-4.57-0.8-4.75-1.3-9.56-1.84-14.35-1.21-10.89-7.85-17.08-18.86-17.07-3.21,0-4.51-.77-4.18-4.12,0.16-1.59.9-4.24-1.84-4.29s-2.22,2.56-2,4.2c0.54,3.86-1.39,4.25-4.58,4.2-5.15-.08-10.31-0.15-15.47-0.15v-3.86q6.07,0,12.16.08c2.5,0,3.85-.31,4.18-3.26s2.37-5.06,5.81-5,5.2,2.26,5.56,5.33c0.27,2.35,1.26,2.76,3.4,3.11,13,2.13,18.17,7.86,19.9,21.07,1.06,8.09,2.46,16.13,3.49,24.22,0.47,3.64,2.06,6.15,5.48,7.46,0-20.46,0-40.92,0-61.38C120.06,91.36,120,90.23,116.64,90.25ZM25.46,180.2v-4.84c2.94-.2,4.54-2,4.49-5.07,0-3.23-1.89-4.91-5-4.87s-4.77,1.93-4.92,5.08c0.25,2.94,1.73,4.68,4.49,4.86v4.83a10.17,10.17,0,0,1-9.31-10,10,10,0,0,1,9.91-9.79,10,10,0,0,1,9.77,9.94A10.19,10.19,0,0,1,25.46,180.2ZM95,160.41a10,10,0,0,1,9.84,9.87A10.22,10.22,0,0,1,96,180.16v-4.83c2.41-.33,3.75-2.05,4.06-5-0.23-2.78-1.63-4.8-4.87-4.88S90.13,167,90,170.2s1.59,5.07,4.78,5.19H95v4.83a10.15,10.15,0,0,1-9.84-9.93A10,10,0,0,1,95,160.41ZM60.28,150.26c5.16,0,10.31,0,15.47,0,2.91,0,4.28,1.22,4.26,4.18,0,9,0,18,0,27,0,3.53-1.72,5-5.3,4.92q-14.71-.2-29.44,0c-3.64,0-5.23-1.5-5.23-5,0-9,0-18,0-27,0-3,1.45-4.15,4.32-4.12,4.89,0.06,9.8,0,14.69,0v4.08h0q-5.63,0-11.25-.17c-3.2-.09-3.82,1-3.86,4,0,3.21.78,4.44,4.13,4.19,3.64-.28,7.32-0.09,11-0.07v0.1h0v4H46.59c-1.39,0-2.61,0-2.61,2s1.23,2,2.61,2c4.14,0,8.27,0,12.41,0v4c-3.94,0-7.9.18-11.83-.08-3.41-.21-3.23,1.74-3.2,4s-0.36,4.2,3.13,4.11c8.65-.22,17.32-0.19,26,0,3.16,0.07,3.07-1.67,2.92-3.77s0.93-4.54-2.85-4.34c-4.32.22-8.66,0-13,0H60v-4c4.47,0,8.94,0,13.41,0,1.39,0,2.61,0,2.61-2s-1.23-2-2.61-2H60v-4h0v-0.1c4,0,8-.21,12,0.07,3.39,0.24,4.13-1,4.11-4.21,0-3-.71-4-3.88-3.94-4.07.12-8.16,0.18-12.23,0.18v-4.09h0.28Z"/>

<path class="cls-1" id="topBar" d="M6.17,22.08a4.49,4.49,0,1,0,6.29,6.42,67.49,67.49,0,0,1,95.34.91,4.49,4.49,0,1,0,6.42-6.29A76.5,76.5,0,0,0,6.17,22.08Z"/>

  <animate
    xlink:href="#topBar"
	attributeName="display"
    values="none;none;inline;none"
    keyTimes="0;0.1;0.67;1"
    dur="9s"
    begin="0s"
    repeatCount="indefinite" />

<path class="cls-1" id="midBar" d="M43.94,60.57A4.49,4.49,0,1,0,50.24,67a13.5,13.5,0,0,1,19.07.18,4.49,4.49,0,0,0,6.42-6.29A22.49,22.49,0,0,0,43.94,60.57Z"/>

  <animate
    xlink:href="#midBar"
	attributeName="display"
    values="none;none;inline;none"
    keyTimes="0;0.1;0.65;1"
    dur="9s"
    begin="0s"
    repeatCount="indefinite" />

<path class="cls-1" id="lowBar" d="M25.06,41.33a4.49,4.49,0,1,0,6.29,6.42,40.49,40.49,0,0,1,57.2.55A4.49,4.49,0,1,0,95,42,49.49,49.49,0,0,0,25.06,41.33Z"/>

  <animate
    xlink:href="#lowBar"
	attributeName="display"
    values="none;none;inline;none"
    keyTimes="0;0.1;0.66;1"
    dur="9s"
    begin="0s"
    repeatCount="indefinite" />

</svg>