<svg id="Layer_1" data-name="Layer 1" xmlns="http://www.w3.org/2000/svg" viewBox="0 0 998 426.4"><defs><style>.cls-1{fill:#fefefe;}.cls-2,.cls-9{fill:#cbcbcb;}.cls-3{fill:#ccc;}.cls-4{fill:#fcfcfc;}.cls-5{fill:#cdcdcd;}.cls-6,.cls-7,.cls-8{fill:none;}.cls-6,.cls-7,.cls-9{stroke:#fff;}.cls-6{stroke-linecap:round;stroke-linejoin:round;stroke-dasharray:1 6;}.cls-6,.cls-9{stroke-width:2px;}.cls-7,.cls-9{stroke-miterlimit:10;}.cls-10{fill:#459e47;}.cls-11{fill:#f4eb68;}.cls-12{fill:#eb8540;}.cls-13{fill:#4880bc;}</style></defs><title>vmg-map22</title><path class="cls-1" d="M0.1,105.47Q0.1,52.6,0-.37C0-2.71.4-3.12,2.7-3.12,16.1-3,29.4-3,42.8-3,46,3.08,43,8.46,40,13.14A49.49,49.49,0,0,0,32.9,29.9a21.94,21.94,0,0,1-7.6,12.7C19.2,47.77,17.6,55,16.7,62.4c-0.5,4.47,1.9,7,6.1,8.23C38,75.1,53.4,79,68.8,82.71c18.3,4.47,36.6,9.14,55.1,13,7,1.52,8,1,9.7-6,2.2-9,5.9-17.47,9.6-25.8,1.7-3.86,3.2-7.62,1.4-11.88-1.1-2.64.3-4.88,1.7-7.11,3.2-5,6.5-10,9.8-14.83,5.2-7.62,3.5-11.68-5.2-14A178.83,178.83,0,0,0,97,10.39c-4.3.2-8.5-.1-12.3-2.64-2.4-1.63-5.4-1.63-8.3-1.12a28.15,28.15,0,0,1-10.1.1c-5.5-1-7.9-4.88-6.4-10h3.2C66-.27,69.7-0.07,73.3-0.48,79.6-1.19,85.5-1,91.5,1.76c5.1,2.44,10.9,1.63,16.3,1C121,1.15,133.5,4.7,146.2,6.84c1.4,0.2,2.8.61,4.2,0.91,3.7,0.71,6.2-.51,7.3-4.37,0.7-2.44,1.6-4.77,3.6-6.5h3.2c2.6,2.34,1.7,5.38,1.2,8.13-0.8,4.47-.8,8.53,1.2,12.7,1.6,3.25,1.3,6.6-.2,10-2.5,5.49-6,10.26-9.4,15.13-2.4,3.35-4.1,6.7-2.6,11.07,1,2.95-.4,5.69-1.7,8.23-4.5,9.24-8.8,18.59-11.2,28.64-1.7,7.11-.4,9.24,6.6,10.67,26.7,5.38,53.4,10.77,80.4,14.32,8.7,1.12,9.6.41,11.4-8.43,2.1-10.67,4.3-21.23,6.2-31.89,1.1-6.3-.4-8-6.7-7.11s-12.4,1.32-18.5-.41c-3.9-1.12-6.5-3.15-7.3-7.62-1-5.69-3-11.17-4.4-16.76-0.9-3.76-3.1-5.69-7.1-6.09-6.5-.61-7.5-2-7.2-8.63,0.2-5-.6-9.85,2.4-14.63,1.9-2.95-1.4-5.59-2.9-8.13-1.6-2.74-5.2-5-2.6-9h3.2c5,2.34,8.1,6.91,12,10.56,2.5,2.23,2.6,5,.6,7.72a26.73,26.73,0,0,0-3,4.47c-2.4,4.88-1.2,7.62,4,8.43,3.7,0.51,5.1,2.74,6,5.89,2,6.6,4.2,13,5.9,19.71,1.2,4.77,4.2,6.81,8.9,6.7,3.9-.1,7.8.1,11.7-0.51,4.2-.61,7.8-1.63,9.7-6.3,1.3-3.25,4.7-2.95,7.5-2.54,14.9,2.34,30,3.56,45,5.49,19.2,2.44,38.5,3.66,57.8,5.89,7.3,0.81,9.1-1.22,9.7-8.63,1.5-17.06,3.1-34.13,4.3-51.19,0.2-2.23.7-4.27,2.6-5.69h3.2c2.2,1.73,2.6,4.16,2.3,6.81-1,9.55-1.3,19.1-2.6,28.64a32.33,32.33,0,0,0-.2,5.38c0.2,3.86,2.2,6.2,6,6.2,6.2,0,12.4,1.42,18.6,1.22,23.5-.71,47,1.42,70.4,1.12,5,0,9.9,1.42,14.9,1,5.4-.41,7-2,6.5-7.62-1-12.09-3-24-4.7-36.06-0.4-2.64-.4-5.08,2-6.81h2.1A8.25,8.25,0,0,1,500.4,3c2.1,14.32,5,28.54,5.7,42.86,0.5,9.75,1.8,19.6,1.5,29.46-0.2,7.11,1.4,14,1.2,21-0.1,4.16,2.3,6.3,6.4,6.3,5.9,0.1,11.8.61,17.6-.1,9.8-1.32,19.5-.81,29.3-0.81,7.3,0,14.5-1.63,21.8-1.22,1.2,0.1,2.6-.1,3.2-1.42,0.8-1.63-.4-2.84-1.4-3.76A82.35,82.35,0,0,0,575,86.37c-5.9-3.86-8.9-9.14-8.6-16.35a22,22,0,0,0-1.2-8c-1.4-4.06-.8-7.92,2.2-11.07,4.6-4.88,5.4-10.46,3.3-16.56-1.2-3.56-.2-6.2,2.2-8.74A129.65,129.65,0,0,1,591,9.68c0.9-.71,2.6-1.32,2.1-2.64-0.4-.91-2-0.3-3-0.1-5.7.81-10.4-1.52-14.9-4.67-1.9-1.32-3.2-2.95-1.9-5.38H950.4c1.6,2,1.4,4.37.7,6.7-0.8,2.84-1.7,5.79-3.5,7.82-5.8,6.4-4.5,13-1.8,20.11,2,5.38,3.8,10.87,5.8,16.25,0.3,0.81.4,2,1.5,1.93,0.7-.1.8-1.12,0.9-1.83C954.6,40,960.3,35.68,965.4,31c1.6-1.42,3.8-2.54,4.3-4.67,1.4-6.09,5.8-8.33,10.9-10.46,3.9-1.63,7.2-4.57,10.7-7,2.1-1.52,4.2-3.56,7.2-2.13V425.12c0,1.22-.1,2.54,0,3.76,0.1,0.91-.2,1.22-1.1,1.12-1.2-.1-2.5,0-3.7,0H837.2a98.71,98.71,0,0,1-21-32.1c-1.4-3.45-2.4-7.21-3.6-10.77-1-2.84-2.4-4.57-5.3-1.93a5.15,5.15,0,0,1-3.9,1.52c-17.6-.81-35.1,1.42-52.6,1.42-3.6,0-6.9-.41-10.1-2.54-3.9-2.64-8.6-2-13-1.63-8.1.71-16.3,1.52-24.4,2.23a15.58,15.58,0,0,0-4.2.91c-0.5.2-1.1,0.41-1,1a1.29,1.29,0,0,0,1.2.91,25.41,25.41,0,0,0,4.8.3c6.4,0.1,12.8-.2,19.1.91,5.8,1,11,2.34,14.8,7.41,2.4,3.25,5.3,3,8.3.51,10.1-8.43,17.5-9.34,27.9-1.93a67.51,67.51,0,0,0,19.3,10.06c3.6,1.12,6.2,3.35,7,7.41,0.5,2.13,2.1,3.76,3.2,5.59,2.1,3.66,3,7.41-.6,10.77H530.7c-2.8-3.86-3.7-7.82-.7-11.88,3.1-4.27,6.8-5.18,12.3-3.66,6.8,1.93,12.8-2.54,14.6-9.45,2.9-11.07.5-21.23-4.5-30.78a35.15,35.15,0,0,1-4.1-19.81c0.1-1.83,0-3.66,0-5.38,0-11.78-2.1-14.42-13.7-14.83-9.1-.41-18.1-0.41-27.2-1.32-22-2.13-44-4.06-64.8-12.39-2-.81-3.9-1.83-5.8-2.74-6.6-3.35-8.9-8.23-7.6-15.95,1.4-8.33.5-17,1.4-25.39,0.5-5.28-1.6-7.62-7-8.23-12.2-1.42-24.4-2.34-36.6-3.35-4.6-.41-6.9,1.73-7.3,6.6-1.5,17.27-3.8,34.43-5.7,51.7-1.3,12.8-2.7,25.5-4.3,38.19-0.6,4.88-2.2,6.4-7,6-9.2-.81-18.4-1.32-27.6-2.34-8.1-.91-16.4-0.3-24.5-1.63-1.3-.2-3.1-0.61-3.8,1s0.7,2.64,1.5,3.86c2.2,3.45,5.4,5.79,8.7,7.82,9,5.59,15.2,12.6,17.5,23.87,2.2,10.36,10.4,17,19.2,22.14,2.9,1.73,5.8,1.12,8.4-1.12a50.89,50.89,0,0,0,5.4-6c4.1-5,9-8.13,15.9-6.09,3.2,1,6.3-.61,9.5-0.91,8.1-.71,9.5.3,11.5,8.13a20.1,20.1,0,0,0,4.1,8.13c1.4,1.63,2.9,3.35,1.5,5.79H4.5c-1.2,0-2.5-.1-3.7,0-0.9.1-1.2-.2-1.1-1.12,0.1-1.22,0-2.54,0-3.76V106.69c4.3-1.22,4.7,2.23,5.4,4.88A55.74,55.74,0,0,1,6,134.21c-0.8,5.38-.7,10.06,4.5,13.31A6.94,6.94,0,0,1,13.6,153c0.3,5,3.3,6.7,7.5,7.62,3.5,0.71,6.8,2,9.3,4.88,1.4,1.63,2.2,3.35,1.4,5.38A4.9,4.9,0,0,1,27.3,174c-6.6.91-9.6,5.69-7.7,12.29,1.1,3.66,2.4,7.21,2.8,11,0.2,2.13.5,4.57-.6,6.4-3.2,5.08-1.3,9.24,1.5,13.51,1.3,1.93,2.7,3.76,4.2,5.59A28,28,0,0,1,33.6,244c-0.6,6,.1,7.52,5.8,9,6.7,1.83,12.8,4.27,16.8,10.56a4.6,4.6,0,0,0,2.4,2c6.2,1.63,9.5,7,14.3,10.46,8.3,6.09,12.8,14,14.7,23.57,1.2,5.79,4.1,8.43,9.7,8.74a91.61,91.61,0,0,1,27.6,5.69c4.3,1.52,6.2,0,6.1-4.47-0.2-7.62,3-13.61,7.9-18.89,7-7.41,7.6-14.53,1.4-23C115.7,234.37,92,200.24,67.4,166.72c-5.1-7-6.3-13.31-3.4-21.43,5.2-14.63,10-29.46,14.3-44.29,1.7-5.79,1-7.31-4.5-8.63-16.5-4.06-33.1-8.84-50-12.8-5.9-1.42-6.4-1-7.4,4.88C14.9,93,9.7,99,4,104.86A3.17,3.17,0,0,1,.1,105.47Z"/><path class="cls-2" d="M410.3,430a8.77,8.77,0,0,0-2.8-3.25c-3.9-3.15-5.5-7.21-5.8-12.19-0.2-3.45-.8-3.86-4.2-4.16a20.46,20.46,0,0,0-8.9,1.32c-2.4,1-4.8,1.42-7-.51a3.62,3.62,0,0,0-4-.41c-2.4,1.12-5.1,2-6.6,4.37-2.6,4.16-6.6,7-9.5,11-1.4,1.83-2.8,1.93-4.6.91-9.2-5-17-11.58-22.6-20.72-1.5-2.54-2.8-5.18-2.9-8-0.3-7.41-4.4-12.29-10-16.35-2.6-1.93-5.2-3.76-7.9-5.38-4-2.34-6.7-5.79-8.9-9.85a17.34,17.34,0,0,0-3.7-5.28c-0.5-.41-1.2-1.12-0.7-1.73a2.49,2.49,0,0,1,2-.41c10.2,1.42,20.4,1.73,30.7,2.34,8.6,0.51,17.2,1.83,25.9,2,2.1,0,4,1.32,6.3,1.12,1.7-.2,2.5-0.81,2.6-2.64,0.7-8,1-16.15,2.3-24.07s1.4-16,2.9-24c0.6-3.35.8-6.81,1.1-10.16,0.7-7.82,1.7-15.74,2.5-23.57,0.6-5.89.7-11.78,1.9-17.67,0.3-1.22.6-1.83,2.1-1.63,6.9,0.71,13.8,1.12,20.6,1.93,5.4,0.61,10.9.71,16.3,1.63,4.5,0.71,9.1,1.12,13.7,1.42,2,0.1,3,.91,2.9,2.95-0.3,4.88.3,9.65-.7,14.53-0.9,4.37-.3,9-0.4,13.51a27.38,27.38,0,0,1-.8,8c-0.9,3.15-.1,5.69,3,7.82,7,4.88,14.9,7.41,23,9.55a204.9,204.9,0,0,0,32.3,5.69c7.7,0.71,15.5,1.42,23.2,2.23,7.5,0.81,14.9.51,22.3,0.81,2.1,0.1,4.2-.1,6,1.52,1.5,1.22,3.4.61,5.2,0.71,3.8,0.2,4.3.71,4.4,4.47,0.1,7.62.1,15.13,0,22.75a15.75,15.75,0,0,0,2.2,8.13A90.74,90.74,0,0,1,562,392a9.07,9.07,0,0,1-.3,5.38,20,20,0,0,0-1,13.2c0.2,0.71.3,1.42-.8,1.32-3.1-.3-4.8,1.93-6.6,3.86-4.2,4.16-5,4.47-10.2,1.73-2.7-1.42-5.2-2.13-8-.3-3,2-4.6,4.57-3.7,8.23,0.4,1.63,1,3-.2,4.57H410.3Z"/><path class="cls-2" d="M0.1,105.47c3.1-3.66,6.6-6.91,9.3-11,3.1-4.67,5-9.55,4.6-15.24a15.82,15.82,0,0,1,.2-3.76c0.1-1.12.9-1.42,1.9-1.32a3.77,3.77,0,0,1,1,.3C38,80.58,59.2,85.56,80.3,91.14c4.5,1.22,4.1,1,2.9,4.88-5,15.74-10.1,31.49-15.1,47.23-0.7,2.23-.8,4.77-2,6.7-2.8,5-.8,8.63,2.1,12.7,10.3,14,20.2,28.24,30.3,42.26l21,29.25c7,9.75,13.5,19.81,21.1,29.15,3,3.76,5.1,7.41,5.9,12a33.27,33.27,0,0,0,1.3,4.16c0.5,1.32,2,2.13,1.7,3.86-0.4,1.93-2,2.84-3.2,4.16-3.6,4-8,7.21-10.1,12.49-1.5,3.66-3.2,7.11-1.6,11.38a5.64,5.64,0,0,1-1.5,6c-1.7,1.73-3.2,2.23-5.6,1.12a75.2,75.2,0,0,0-28.2-6.81c-3.3-.1-6.6-1.32-10-1-1.8.1-2.5-.81-2.6-2.64-0.2-6.6-2.6-12.6-5-18.59a17.52,17.52,0,0,0-9.4-9.75,6.22,6.22,0,0,1-4.1-4.27,6.4,6.4,0,0,0-6.2-5c-4.7-.3-7.4-4.27-9.8-7.72-2.1-2.95-4.8-4.16-7.8-5.08-3.5-1.12-7.2-1.93-10.7-3.25-3.8-1.42-3.8-1.83-3-5.59,2.2-10,.5-18.69-6.6-26.41a37.38,37.38,0,0,1-6-9.55c-1.3-2.64-1.7-5.79.6-8.13,2.5-2.64,2.2-5.59,1.5-8.63a42.3,42.3,0,0,0-3.3-10.26c-1.1-2.13-1.7-4.06.5-6.3,2-2,1.3-5.08.6-7.72-0.5-1.93.3-2.34,1.9-2,1.9,0.41,3.7,1.12,5.6,1.63a5.48,5.48,0,0,0,4.2-.1c1.3-.61,1.9-1.63.9-3a10.12,10.12,0,0,0-5.6-4c-3.6-1-7.1-2.34-10.9-2.34-3,0-3.1-.41-2.6-3.15,1.1-6.4.7-7.52-4.8-11A5.75,5.75,0,0,1,3.5,142c0.2-3,.3-6.09.7-9.14C5.2,125,5,117,2.5,109.33a3.79,3.79,0,0,0-2.2-2.84A1.69,1.69,0,0,1,.1,105.47Z"/><path class="cls-2" d="M378.3-3c0.3,9.75-.9,19.4-2,29.05-0.6,5.18-.8,10.36-1.2,15.54-0.5,7.52-1.5,14.93-2.2,22.45-0.2,1.93-1.3,2.84-2.8,2.34-4.5-1.52-9.1-.61-13.7-1.63s-9.5-1-14.2-1.52C332,62,321.8,61.48,311.6,60.27c-7.9-.91-15.7-2.13-23.7-2.64-7-.41-14-1.63-21-2.74-3.3-.51-6.7-0.71-10-1.42-2.8-.61-3.2,0-3.8,2.95-0.3,1.22-.7,2.44-1,3.66-0.3,1.52-1.3,1.83-2.7,2A163.55,163.55,0,0,1,225,63.21c-4.6-.1-5.3-1-6.2-5.59-0.8-4.37-2.1-8.74-3.3-13-1-3.66-2.5-7.11-3.3-10.87-0.6-3-1.8-3.45-4.7-2.74-2,.51-4.2,2.54-6,1.22s-0.2-4.16-.9-6.09C198.8,21.06,202,18,205,15.07s2.3-5.08-.6-6.91c-4.3-2.64-6.5-7-9-11.07Q287.05-3.07,378.3-3Z"/><path class="cls-2" d="M59.9-3C60.5-1.9,61.1-.78,61.6.34A6.36,6.36,0,0,0,67.9,4.5c2.8,0,5.6.2,8.5-.61,4.1-1.12,8.2-.61,11.5,2.44a6.8,6.8,0,0,0,4.9,1.42c5.7,0,11.4.2,17.1,0,12.5-.51,24.6,1.93,36.8,4.57,2.8,0.61,5.5,1.52,8.3,1.93,8.3,1,9.2,9.45,5.9,14.22-4.1,5.89-7.9,11.88-12.1,17.78-2,2.74-2.5,5.08-.1,7.72a3.8,3.8,0,0,1,.5,5c-4.1,6.4-6.3,13.61-9.3,20.52a55.62,55.62,0,0,0-4,15c-0.2,1.63-.7,3.15-1,4.77-0.2,1.32-.8,1.73-2.2,1.42-4.8-1.12-9.7-1.93-14.5-3.15-15.3-3.66-30.6-7.62-45.9-11.17C53.8,82.1,35.6,77,17.3,72.15c-2.3-.61-3-1.52-3.3-3.86-0.8-8,2-15.24,4.6-22.55a8.46,8.46,0,0,1,4-4.16A17.19,17.19,0,0,0,30.2,30.3c1.5-6.7,3.3-13.1,7.9-18.59C40.6,8.77,41.3,4.6,41.8.64a13.38,13.38,0,0,1,1.1-3.56C48.5-3,54.2-3,59.9-3Z"/><path class="cls-2" d="M573.8-3c5.5,6.6,12.6,9,20.3,6.2,3.1-1.12,5.5,0,8.3.41a1,1,0,0,1,1,1,2.06,2.06,0,0,1-.7,1.32c-3.8,1.32-6.6,4.06-9.8,6.3a122.8,122.8,0,0,0-17.8,15.44c-1.7,1.83-2.9,3.35-1,6,2,2.84.4,6.4,0.9,9.55,0.6,3.86-1.7,6-4,8.33-3.2,3.15-5.1,6.6-1.9,10.87,0.8,1,.5,2.44.5,3.66,0,2-.1,4,0,6,0.2,4.57,1.8,8.23,5.7,10.87a97.24,97.24,0,0,1,16.6,14.32c0.7,0.81,1.5,1.63,2.1,2.44,1.6,2.54,1.1,3.66-1.8,3.56-11.9-.61-23.7,1.63-35.6,1.12h-0.5c-14.2-.41-28.3,1.83-42.5,1.12-1.1-.1-2.1,0-3.2,0-3.6-.1-3.8-0.2-3.7-3.66,0.3-11.17-1.8-22.24-1.1-33.42,0.1-1.63.3-3.35-1.1-4.57-2.1-1.83-2.2-3.76-1.2-6.3,2.5-6.5.8-13.1-.1-19.71s-1.9-13.51-3-20.21c-1.1-6.91-1.4-13.92-3.2-20.72C522.5-3,548.2-3,573.8-3Z"/><path class="cls-2" d="M192.4-3c2.9,4.88,5.5,10.06,10.3,13.41,1.6,1.12,1.4,2.34.1,3.56-0.8.71-1.4,1.63-2.3,2.34-2.6,2.23-3.7,4.77-2.2,8.13,0.7,1.63,0,3.15-.3,4.67-1,4.67.6,6.4,5.4,5.79,1.9-.2,3.7-1.83,5.6-0.51s2,3.76,2.5,5.79c1.9,6.7,3.8,13.51,5.2,20.31A5.45,5.45,0,0,0,220.6,65a30,30,0,0,0,15.8,1c3.7-.81,7.4-0.3,11-1.52,2.9-1,4.1.61,3.5,4-1.1,5.69-2.2,11.27-3.3,16.86-2,10.16-4.1,20.42-6.1,30.57-0.6,3.25-.9,3.45-4.1,3.76s-6.4-.81-9.4-1.32c-10.3-1.73-20.6-2.95-30.9-4.77-12.7-2.23-25.3-4.88-38-7.11-6.1-1-12.1-2.44-18.1-3.86-2.9-.71-3.3-2.13-3.1-4.47a59.58,59.58,0,0,1,4-16.66,161,161,0,0,1,9.6-21.74c1.4-2.44,1.9-4.88-.1-6.91s-1.3-3.86,0-5.79c3.2-4.77,6.4-9.45,9.7-14.22,0.7-1,1.3-2.13,2-3.15,3.4-4.88,3.4-9.75-.3-14.42a3.9,3.9,0,0,1-1-3.45c1-4.88,2-9.85,2.9-14.73C173.9-3,183.1-3,192.4-3Z"/><path class="cls-2" d="M494.7-3c0.2,6.5,1.8,12.8,2.5,19.2,0.5,4.57,1.5,9.14,1.8,13.81a176.89,176.89,0,0,0,2.5,17.57c0.4,2-.1,2.74-1.9,2.64-6.7-.3-13.5.91-20.1-0.91a19.11,19.11,0,0,0-4.2-.2c-7.6,0-15.3.51-22.9-.1-17.5-1.52-35.1-.3-52.6-1.22-6.5-.3-13.1-0.71-19.6-0.91-2.5-.1-3.3-0.91-2.8-3.35,1.8-9.14,1.8-18.49,2.8-27.73,0.7-6.2,1.6-12.49,1.4-18.79H494.7Z"/><path class="cls-2" d="M803.5,430v-3.76c0.1-3.35-1-6.09-3.8-7.82-1.7-1-2.7-1.93-1.9-4.27s-0.9-3.86-2.8-4.47c-2.4-.71-4.5-2.13-7-2.54a20.46,20.46,0,0,1-10.8-5.49,35.9,35.9,0,0,0-6.5-4.57c-8.1-4.77-15.1-3.86-21.5,2.84a75.14,75.14,0,0,1-6.1,5.18c-0.9.81-1.6,0.51-2.3-.2a44,44,0,0,1-3.5-4.06c-2.6-3.86-5.7-6.3-10.6-7.21a107.91,107.91,0,0,0-29.7-1c-2,.2-3-0.1-3.8-1.83a4.14,4.14,0,0,0-.5-0.91c-3-5.18-3-5,3.2-5.38,5.4-.3,10.9-1.22,16.3-1.83,0.4,0,.7-0.2,1-0.2,7.8,0.2,15.5-1.83,23.4-1.22,2.4,0.2,4.7.51,6.3,2.34,1.8,1.93,3.9,2,6.3,2.13,9.4,0.61,18.8-1.32,28.2-1.22,5.5,0,11,.51,16.4-0.91a15.33,15.33,0,0,1,7.4.3c4.7,1.22,6.6-.61,6-5.59-0.1-.71-0.7-1.42,0-1.93s1.3,0,1.9.41a11.49,11.49,0,0,1,5.8,7.31c2.1,6.91,3.9,13.92,7.3,20.31a101.07,101.07,0,0,0,6.1,9.45c3.5,5.08,7.6,10,9.2,16.25C826.3,430,814.9,430,803.5,430Z"/><path class="cls-2" d="M999,6.74c-4.3,3.15-8.3,6.7-12.9,9.45-2,1.22-3.9,2.84-6,3.35-4.1,1-6.1,3.35-6.8,7.41-0.4,2.44-2.7,3.76-4.3,5.28-1,.91-2.3,1.73-3.4,2.54C959.8,39,957,45,956.4,52.14a15.23,15.23,0,0,1-1.9,6.3,19.81,19.81,0,0,1-3.7-6.6c-4.1-10.36-7.4-20.92-10.8-31.49-0.4-1.32.2-1.93,0.9-2.84,2.7-3.56,5.5-7.11,7.1-11.38,1.1-3,2-6.09,3-9.14h36.3a14.64,14.64,0,0,1,11.8,8.63A4.23,4.23,0,0,0,999,6.74Z"/><path class="cls-3" d="M161.4-3c0.1,4.16-1,8.13-2,12.19-0.8,2.95-1.5,3.45-4.4,2.84s-5.8-1.42-8.7-2.13c-7.9-2-15.9-2.84-23.9-4.27-7.8-1.32-15.4.91-23.2,0.2-4.3-.51-8.3-0.2-12.2-2.95C83.6,0.54,79.2.74,75.1,1.76a24.83,24.83,0,0,1-4.7.61C66.5,2.57,64,.95,63.1-3h98.3Z"/><path class="cls-4" d="M999,5.62c-1.4-.71-2.8-1.42-4.3-2-0.8-.3-1.8-0.41-2-1.52-0.4-3.25-3.6-3.56-5.5-5.18h10.7c0.9,0,1.1.2,1.1,1.12V5.62Z"/><path class="cls-2" d="M249.4,366h-1.1c-6.1-.1-6.6-0.81-5.4-7,1.6-8.43,2.9-17,4.1-25.5,1.3-9.75,3.4-19.4,5-29.15,1.3-7.62,2.3-15.24,3.5-22.85,0.8-5.28,1.7-10.67,2.5-15.95,0.9-6.7,2.6-13.41,2.9-20.21,0.2-3.56,1.1-4.37,4.7-4.16,1.2,0.1,2.4.71,3.6,0.81,7,0.81,14,1.52,21.1,2.44,4.7,0.61,9.4,1.32,14.2,1.93,4,0.51,8.1.61,12.1,1.42,6.8,1.32,13.7.91,20.6,1.83,5,0.71,10.2,1.22,15.3,1.52,7.2,0.41,14.4,1.42,21.6,2.13a2.17,2.17,0,0,1,2.2,2.44c0,1.63.1,3.25,0,4.88-1,7.82-2.4,15.64-2.9,23.46-0.3,4.67-1.2,9.24-1.4,13.92s-1.1,9.65-1.7,14.42c-0.5,3.56-1,7.21-1.2,10.67-0.4,8.43-2.1,16.76-2.5,25.19-0.2,3.35-1,6.7-1,10.16a3,3,0,0,1-3.3,3.35c-2.8,0-5.8.51-8.5-.2-4.2-1-8.5-.3-12.7-1-6.1-1-12.4-.2-18.4-1.93a4.26,4.26,0,0,0-1.6-.1c-6.6.61-13.1-.81-19.6-1.42-4.6-.41-8.9.41-13.3,0.61a72.18,72.18,0,0,0-13.1,1.63c-3.4.71-7.1,0.81-10.4-1a14.61,14.61,0,0,0-3.6-1c-3.6-.81-5.3.71-4.9,4.37,0,0.3.3,0.71,0.3,1,0.3,2.95,0,3.25-3.1,3.45h-1.1c-1.1-.1-2-0.1-2.9-0.1h0Z"/><path class="cls-2" d="M187.7,115.93c-2.1,9.85-4.1,19.1-6,28.44l-7.5,36.87c-2.6,12.6-5.3,25.29-7.9,37.89-1.6,7.52-3.3,15-4.8,22.65-0.4,2-1,2.95-3.1,2.23-3.1-1.12-6.8-1.63-9.3-.71-2.9,1-1.9,5.69-3.1,8.63-1,2.64-.4,5.38-0.6,8-0.1.91-.3,1.93-1.2,2.23s-1.6-.51-2.1-1.22c-4.2-5.79-8.4-11.58-12.5-17.47q-14-19.35-27.9-38.8C92,191.4,82.5,177.89,72.9,164.48c-1.5-2-2.8-4.16-4.3-6.09s-1.4-4-.7-6.09c3.2-9.75,6.4-19.4,9.3-29.25,2.8-9.45,6.1-18.79,9.2-28.14,0.4-1.22.6-2.23,2.5-1.83,16,3.76,32,7.62,48,11.17,14.3,3.15,28.7,5.89,43.1,8.84,2.1,0.41,4.2.81,6.3,1.12C187.6,114.41,188.1,115.12,187.7,115.93Z"/><path class="cls-2" d="M233.3,364.79a54.16,54.16,0,0,1-12.7-3.66c-14.4-5.69-28.7-11.48-42.9-17.47-7.3-3.15-14.3-7.11-21.7-10.26a169.72,169.72,0,0,1-17.6-9,36,36,0,0,1-3.6-2.34,1.49,1.49,0,0,1-.2-2.34c2.9-3.35,3.5-6.91,2.4-11.48-1.2-4.77,2-8.63,4.8-12.09s6.1-6.5,8.8-10.06c2.2-2.95,2.3-2.84.6-6-4-7.21-4.5-15.13-3.6-23.06,0.4-3.15,1.3-6.3,1.8-9.45,0.3-1.93,1.5-2.23,3.1-2.13H153a31.74,31.74,0,0,0,9.8,1.32c0.8-3.45,1.8-6.91,2.5-10.46,0.5-2.44.8-5,1.3-7.41s1.5-3.35,4.1-3c1.6,0.2,3.1.71,4.7,1,11.2,2.34,22.6,4.16,33.9,6.09,7.8,1.32,15.7,2.54,23.5,3.66s15.4,2.23,23.1,3.25c2.1,0.3,2.5,1.32,2.7,3.25,0.2,3.15-.8,6.09-1.3,9-2.2,14.53-4.8,28.95-7.2,43.47-2,12.19-3.7,24.48-5.5,36.67-1.4,9.24-2.8,18.39-4.3,27.63C239.6,364.58,239,365,233.3,364.79Z"/><path class="cls-2" d="M280.8,151.07c2.3,0.2,5.4.71,8.5,1.22,7.3,1.32,14.7,1.63,22,2.84,4.9,0.81,9.9.61,14.8,1.22,6.5,0.81,13,1.22,19.5,2.13a106.77,106.77,0,0,0,12.7.91c7.8,0.2,15.5,1.63,23.3,1.52,5.5-.1,10.9,1.42,16.4,1,2.1-.1,3.1,1.22,2.6,3-1.5,5.08-.3,10.46-1.6,15.54a5.38,5.38,0,0,0-.4,2.13c0.5,6.3-.8,12.6-1.4,18.79-0.6,5.69-.4,11.48-1.6,17.17-0.9,4.37-.9,8.94-1.1,13.41-0.3,5.59-1.5,11.07-1.4,16.66,0.1,3.35-.6,3.66-3.9,2.95a12.05,12.05,0,0,0-2.6-.61c-6.6.61-13.2-.61-19.6-1.42-6.9-.91-13.8-0.2-20.6-1.63-4.2-.91-8.8-0.61-13.2-1.22-5.8-.81-11.6-1.52-17.3-2-4.9-.41-9.8-1.42-14.8-1.42a86.79,86.79,0,0,1-12.6-1.22c-7.7-1.32-15.3-2.44-23.1-3-3.1-.3-3.3-0.61-2.9-4.06,1.9-13.71,4.5-27.22,6.4-40.83,1.8-12.19,4.2-24.38,5.6-36.67a25.76,25.76,0,0,1,.7-2.64C276.4,151,276.4,151,280.8,151.07Z"/><path class="cls-2" d="M356.8,156.36c-7.5-1.12-15.2-.71-22.7-1.83-4.7-.71-9.5-0.71-14.3-1.32-5.4-.71-10.9-1-16.3-2-3.8-.71-7.8-0.71-11.6-1-9.7-.81-19.3-2.54-28.9-3.66-6.8-.71-13.6-2-20.4-3.15-3.1-.51-3.7-1.22-3.1-4.16,1.5-7.72,3.2-15.44,4.7-23.16,3-15.34,6-30.57,9-45.91,0.8-4.06,1.5-8.13,2.3-12.19,0.3-1.42.9-2,2.6-1.73,8.3,1.52,16.8,2.23,25.2,3.25,8.1,0.91,16.1,2.54,24.3,2.64,4.9,0.1,9.8,1.12,14.7,1.83,3.7,0.51,7.4.91,11.1,1.12,9.9,0.51,19.6,2.84,29.6,2.54,2.8-.1,5.6.71,8.4,1.12,1.4,0.2,1.5,1.22,1.3,2.44-0.9,6.91-1.1,13.92-2,20.82-0.7,5.18-.5,10.36-1.7,15.54-1,4.16-.7,8.63-1,12.9-0.5,5.69-1.1,11.48-1.5,17.17S366,149,364.7,154.63c-0.5,1.83-.6,3-3,2.23C360.1,156.36,358.4,156.56,356.8,156.36Z"/><path class="cls-2" d="M495.8,255.19c-8.2,0-14,.41-19.6-0.1-13.1-1.12-26.3-.2-39.3-1.22-9.2-.71-18.4-0.51-27.6-0.81-3.7-.1-7.3-1.42-11.1-1.22-2.2.1-2.7-1.22-2.5-3.76,0.7-6.4,1-12.9,1.9-19.3,0.8-6,.5-12.19,1.9-18.18a7.72,7.72,0,0,0,.2-2.13c-0.6-6.3,1.4-12.49,1.2-18.79-0.1-4.06,1-5,5.2-5,15.5,0,31-.81,46.4.2,19.9,1.42,39.8.3,59.7,0.81a18.93,18.93,0,0,1,5.8.71,6.66,6.66,0,0,0,4.2.2c2.4-1,4-.3,5.6,1.52,1.1,1.12,2.9,1.73,3.7,3,0.9,1.52-1.3,2.64-1.3,4.37-0.1,3,.1,6,2.9,7.62,2.2,1.32,2.3,3.15,2.6,5.38,1.3,11.88,1,23.77,1,35.65,0,1.73.7,3.15,0.9,4.77,0.6,3.66-.5,5.08-4.1,5.08C519.9,254.17,506.6,256.2,495.8,255.19Z"/><path class="cls-2" d="M193.5,115.22c5,0.91,10,2,15.1,2.74,6.3,0.91,12.5,2.23,18.9,2.74,3.7,0.3,7.3,1.22,11.1,1.12,1.4,0,1.6.81,1.4,2.23-1.2,5.59-2.3,11.27-3.4,16.86-0.7,3.76-.2,4.27,3.5,4.77A152.53,152.53,0,0,1,255.3,148c4.3,1,8.8.91,13.1,1.83,3.8,0.91,4.8,1.32,4.3,5.18-0.7,5.49-1.7,11-2.5,16.46-1.2,7.62-2.5,15.13-3.8,22.75-1.7,10.46-3.3,20.82-5.1,31.29-0.5,3.15-.1,6.4-1.1,9.65-0.7,2.23-1.7,2.95-3.7,2.64-4.9-.71-9.8-1.22-14.6-2.34-6.7-1.52-13.6-1.73-20.4-3-9.7-1.83-19.4-3.45-29.2-5.08-6.3-1-12.5-2.23-18.7-3.66-4.1-.91-4.9-1.73-4.1-5.59,1.8-8.43,3.6-16.86,5.4-25.19,2.8-13.31,5.5-26.71,8.3-40,2.4-11.58,5-23.16,7.3-34.74C190.5,116.13,191.3,114.91,193.5,115.22Z"/><path class="cls-2" d="M488.3,183.58h-0.5c-27.2,0-54.3-1.83-81.5-1.12-4.4.1-5.3-.71-4.3-5.08,1.1-4.77.2-9.75,1.4-14.42,0.5-1.93-.3-2.74-1.9-3.15a4.26,4.26,0,0,0-1.6-.1c-7.5.61-14.8-1.42-22.3-1.22-2.8.1-5.6-.71-8.4-1.12a1.93,1.93,0,0,1-1.6-1.83,40,40,0,0,1,0-6c1.2-7.11,1.3-14.32,2.1-21.43a86,86,0,0,0,1-12.29c-0.1-2.13,1-3.25,2.9-2.64,4,1.42,8.2.3,12.1,1,8.2,1.42,16.7.1,24.8,1.93a4.9,4.9,0,0,0,2.1.1c10.1-.71,20.2.71,30.3,1.42,8.4,0.61,17,.2,25.3,2,3.1,0.71,6.2,1.73,9.2,2.64,1.4,0.41,2.9.81,4.2,0.3,6.2-2.23,11.4,1.32,16.9,2.95,1.8,0.51,3,2.54,3.8,4.37,4.6,10.36,9.1,20.82,11.1,32,0.6,3.56,2.3,7.31.8,11.07-0.3.81,0,1.63,0.8,1.63,3.3,0,4,2.44,4.8,4.88a3.07,3.07,0,0,1,.4,1c0.3,1.22,2.6,2,1.2,3.66-0.9,1-2.3.41-3.5-.1-1.7-.71-3.5-0.51-5.3-0.51H488.3Z"/><path class="cls-2" d="M387.5,49.09c11.3,1.83,24.7.1,38,1.32,10.9,0.91,21.7-.1,32.4.91,13,1.22,25.9.71,38.8,1,3.8,0.1,3.9.41,3.5,4.47-0.3,3.25-.8,6.4,1.7,9.24,1.3,1.52,1.4,3.66,1.4,5.69,0,13.41-.1,26.71,0,40.12,0,2.95-.9,5.69-1.6,8.43-0.5,2-1.6,2.84-4,2-5.7-1.83-11.4-3.66-17.7-2.13-2.2.51-4.8-.61-7.1-1.83a18.19,18.19,0,0,0-9.8-2c-9.6.61-19.1-1-28.7-1.32-10.6-.3-21.2-1.42-31.8-2.13-9.3-.61-18.7-1.32-28-1.93-2-.1-3-0.81-2.9-2.95,0.1-2.34-.3-4.67.5-7a8.65,8.65,0,0,0,.5-3.15c0.1-7.21,1.5-14.32,1.9-21.43,0.4-5.89,1.4-11.78,1.4-17.78C376.1,49.09,376.2,49.09,387.5,49.09Z"/><path class="cls-2" d="M558.4,174.94H591c3.6,0,3.5.1,4.3,3.66,0.9,4,1.4,8.13,3.7,11.78,1.9,2.95,3.8,5.59,7.3,6.6,3.9,1.12,6.1,4.47,7.6,7.92a7.8,7.8,0,0,0,4.6,4.67c3.7,1.52,3.8,1.83,2.6,6.09-0.6,2.34-1.9,4.57-.9,7.31,0.8,2.13,1.6,3.86,3.9,4.77,6.3,2.64,10,7.72,12.7,13.92a27.29,27.29,0,0,0,5.6,9c1.2,1.12,1.9,2,.4,3.56-3.2,3.15-4.3,7.31-4.9,11.68-0.7,5-.9,5.08-5.7,5.79-1.8.3-4,2.23-5.4,0.2-1-1.42,1.1-3.15,1.5-5a12,12,0,0,1,.6-2q0.45-1.68-1.2-1.83c-1.2-.1-2.5-0.1-3.7-0.1-7.8,0-15.7-.61-23.5.2-11.2,1.12-22.4.1-33.5,1.12-7.6.71-15.2,0.61-22.8,0.81-3.8.1-4.3-.61-4.5-4.27v-0.51c0.7-16.76-1.6-33.52-1.1-50.28a10.76,10.76,0,0,0-3.5-8.63c-3.7-3.66-3.6-4.16-.5-8.63,1.6-2.23,1.6-2.34-1-3.56-5.1-2.34-8.6-6.2-11.2-11.17-1.1-2.13-.7-2.84,1.8-2.95,4.3-.1,8.5,0,12.8,0,7.1-.2,14.2-0.2,21.4-0.2h0Z"/><path class="cls-2" d="M533.2,329c-8.7-1.83-17.7-.1-26.4-2a20.14,20.14,0,0,0-4.3-.1c-7.8.2-15.5-1.32-23.2-2.64-6.2-1-12.6-1.83-18.7-3.66-7.3-2.13-14.6-4.27-21.4-8-2.7-1.42-4.4-3.35-4.4-6.7-0.1-10.46,1.7-20.82,1.3-31.29-0.1-2.23,1.1-4.47,1-6.91-0.1-2.23-.4-3.56-3.1-4a81.36,81.36,0,0,0-10-1c-6.4-.1-12.6-1.22-19-1.83-4.4-.41-8.8-1.52-13.2-1.32-3.6.1-7-1.22-10.5-1.22-1.6,0-1.9-1.32-1.9-2.64s0.4-2.54,2-2.64c1.2,0,2.6-.3,3.7.1,4,1.42,8.2.41,12.2,1,9.3,1.42,18.7.41,28,1.93,4.9,0.81,10-.1,14.9.2,30.7,2.13,61.5.51,92.2,1,4.5,0.1,4.9.51,5,5v2.13a28.69,28.69,0,0,0,2.1,13.2c2.4,5.49,3,11.38,3.3,17.37,0.3,4.06,1.1,8.13,1,12.29-0.1,5.59-1.3,11.07-1.3,16.66,0,4.37-1.2,5-5.7,5C535.7,329,534.4,329,533.2,329Z"/><path class="cls-2" d="M740.4,351.18c0.3-2.44-.7-4.47-1.4-6.5-4.8-13.71-9.7-27.43-14.6-41.24-1.2-3.35-2.4-6.81-3.7-10.16-0.5-1.32-.2-2,1.2-2.34a12.52,12.52,0,0,1,3-.91c5,0.41,9.9-.91,14.8-1.42,6.7-.71,13.4-0.3,20-1.83,1.9-.41,4.1-0.81,3.2,2.64-0.2.91,0.6,1.63,1.2,2.34,1.6,1.73,3.2,3.56,5.4,4.27,9.3,2.74,15.5,9.65,22.1,16.15,4.7,4.67,9.2,9.55,14,14.12,2.9,2.74,4.8,6.3,7.6,9,0.7,0.71,1.6,2,1.4,2.84-1.9,6.09,1.8,12.8-2.5,18.79-2.4,3.35-1.4,7.62-1,11.58,0.1,0.71.5,1.32,0.6,2,0.5,2.84,0,3.25-2.8,2.44-3.2-.91-4.2-0.3-4.5,3-0.2,1.73.7,4-.6,5.18s-3.3-.41-5-0.3c-7.4.51-14.8-.2-22.3,0.91-6.1.91-12.4,0.2-18.7,0.2-1.9,0-3.9-.3-5.8.51-3.1,1.32-5.5-.1-7.8-1.83a3.63,3.63,0,0,1-1.7-3.15,39.65,39.65,0,0,1,0-4.88,12.19,12.19,0,0,0-2.7-9,18.41,18.41,0,0,1-1.8-2.74c-1.2-2-1.3-4.06.5-5.89C739.8,354.12,740.8,352.8,740.4,351.18Z"/><path class="cls-2" d="M568.8,171.69c-6.9,0-13.9.1-20.8,0-8.2-.1-16.2,1.83-24.4,1.12a16.84,16.84,0,0,0-3.2,0c-2.3.1-3.1-.91-3.2-3.15-0.6-11.88-4.8-22.75-9.1-33.62-1.3-3.25-2.5-6.7-4.6-9.65a2.18,2.18,0,0,1-.4-2.54c2.9-3.86,2.4-8.53,3.3-12.9,0.6-2.54,1.4-3.25,3.8-3.25,7.8,0.1,15.7.61,23.5-.1,17.2-1.73,34.4-.51,51.6-0.91,3-.1,5.8-1.42,8.9-1.12,3.4,0.41,4,.81,4.3,4.16a5.87,5.87,0,0,1,0,2.64c-1.7,4.16.6,6.6,3.4,9.14,3.2,2.95,6.1,6.09,9.1,9.14,6.6,6.81,6,12.8-1.7,18.28a66.43,66.43,0,0,1-6.2,4.16c-1.4.81-2.3,1.63-1.3,3.35,1.9,3.15.8,5.89-1.3,8.43a13.2,13.2,0,0,0-1.1,1.22c-1.3,2.13-2.2,5.38-4,6s-4.8-.41-7.3-0.3C581.6,171.69,575.2,171.69,568.8,171.69Z"/><path class="cls-2" d="M669.9,206.23c0.6,2.84-.6,5.49-2.2,7.92-1.9,2.74-2.7,5.89-3.7,8.94a5.51,5.51,0,0,0,2.2,7c3,2.13,2.9,2.34.5,5.18-2.6,3.25-5.2,6.4-10,6.09-1.4-.1-1.7,1-1.1,2.23,0.3,0.61.6,1.32,0.9,1.93,0.3,0.81.9,1.83,0,2.44-0.6.41-1.2-.51-1.7-0.91l-1.5-1.52c-1.9-1.52-3.8-2.95-6-.61a5.17,5.17,0,0,1-1.5.61c-3.4,1.22-3.5,1.22-5.3-2.23a95.46,95.46,0,0,0-4.6-9,20.88,20.88,0,0,0-10.3-8.84c-2.3-.91-2.8-2.23-2.8-4.47a14.1,14.1,0,0,1,1.6-6.7c1.5-3,1.1-4.47-1.7-6.09a26.28,26.28,0,0,0-3-1.12,5.53,5.53,0,0,1-3.4-3.15,17.45,17.45,0,0,0-9.8-9.85c-5.1-2.23-7.5-7.62-8-13.2-0.5-5.08-.3-10.06,3.9-14a8.52,8.52,0,0,0,2.5-7.41,5.51,5.51,0,0,1,3.3-6.2c2.2-1.22,3.8-3.25,5.5-5.08,5.3-5.49,5.7-10.56,1.1-16.76-0.5-.71-1.4-1.42-0.8-2.34a2.68,2.68,0,0,1,1.9-.61c8,0.1,15.9-1.73,23.9-1.22a27,27,0,0,0,9-.71c3.3-1,4.8,0,6,3.56,1.5,4.37,3.3,8.13,7.4,10.87,2.5,1.63,2.5,5.18,2.5,7.92,0,9.24,1.7,18.28,2.5,27.32s1,18.28,2.9,27.22C670.1,204.1,669.9,205,669.9,206.23Z"/><path class="cls-2" d="M614.8,126.39c-2.5.71-5.6-1.22-8.3-4.57a36.66,36.66,0,0,0-3.4-3.45,5.77,5.77,0,0,1-1.9-5.59c0.7-5.59-2.1-10.36-5.3-14.83-4.7-6.5-10.8-11.58-17.2-15.85S571.2,72,571.8,65.34c0.1-1.22.7-2.13,0.1-3.56-2.1-4.57-1.6-6.2,1.8-9.34,0.5-.51,1.1-0.81,1.7-1.32a6.07,6.07,0,0,0,2.6-5.59c-0.2-2.84.1-5.79-.3-8.63-0.3-1.93.3-2.84,2-2.84,3.9-.1,7.8-0.1,11.6-1.12,1.7-.51,3,0.71,4.1,1.93s2.3,2.34,4.1,2.23c6.9-.3,13.1,2.74,19.6,4.37,8.1,2,16.1,4.16,24.2,6.3a22.47,22.47,0,0,0,2.7.2c8.2,0.3,8.9,5.49,7.2,12-0.3,1.12-1.4,2-1.9,3.25-1.1,2.44-2.3,5-1.5,7.82s1.8,5.69,5.4,6.6c3.2,0.91,3.8,2.64,1.6,5.18-3.5,4.16-3.8,8.94-4.4,14a86.08,86.08,0,0,0-.7,13.41c0.1,3,1.2,6,1,9s0.2,4.27-3.9,4.77a84.44,84.44,0,0,1-14.3.81C628.7,124.66,622.7,125.68,614.8,126.39Z"/><path class="cls-2" d="M562.6,343.15h-1.3c-7.2-.1-6.8.81-6.8-6.5,0-4.27-.8-5.08-4.8-5.38a14.49,14.49,0,0,0-2.1,0c-1-.1-2.4.41-2.9-0.71-0.3-.61.2-1.73,0.3-2.64,1.3-8.43,1.1-16.86,1.1-25.29,0-10-1.3-19.71-4.9-29.05a8.25,8.25,0,0,1-.5-2.13c-0.2-2.34.4-2.95,3-3.25,9.3-1.32,18.8-.51,28.1-1.22,11.2-.81,22.3-0.41,33.5-1.12,5.7-.41,11.3-0.81,16.9-0.81,2.7,0,3,.61,2.3,3.35-0.4,1.52-1.1,3-1.4,4.67-0.4,1.83.3,2.64,2.2,2.23,2.6-.61,5.3-0.51,7.8-1.32,1.8-.61,2.4.41,1.9,2.44a92,92,0,0,1-8.8,20.72c-6,10.67-12.1,21.23-16.4,32.71-1,2.64-2.1,5.38-1.8,8.33,0.2,2.34-1.2,3.25-3.1,3.76a15.1,15.1,0,0,1-3.7.2c-6.6,0-13.2.3-19.7,0C575,341.63,568.8,343.56,562.6,343.15Z"/><path class="cls-2" d="M671,369.46c0-4.37-.3-8.74.1-13,1.8-19.1.6-38.19,1-57.39,0.1-3.45.2-3.35,3.7-3.76,9.3-1,18.6-2.13,27.9-3.15,3.9-.41,7.8.3,11.6-1,1.3-.41,2.2.81,2.7,2.13,1,2.74,2,5.38,3,8.13,5.3,15.13,10.6,30.17,15.9,45.3,0.9,2.64,1.6,4.88-1,7.21-2.3,2.13-2.5,5.08-.7,7.92,0.6,0.91.8,2.13,1.6,2.84,3.7,3,2.4,7.21,2.5,11.07,0,1.32-.9,1.83-2.1,2-1.6.3-3.1,1-4.7,0.91-5.2-.2-10.3.71-15.3,1.42-7.7,1.12-15.6.1-23.3,1.83-1.9.41-3.9,0.1-5.9,0.2-1,0-2.3-.41-2.8.91-0.4,1,.6,1.52,1.1,2.23,1.4,2.13,2.9,4.16,4.1,6.3,0.8,1.42.1,2.44-1.5,2.34a6.77,6.77,0,0,1-5.1-2.54c-2.4-2.95-5.2-3.25-8.6-2.34-3.9,1-4.2.71-4.3-3.45C671,380.33,671,374.94,671,369.46Z"/><path class="cls-2" d="M668.9,344.27c0,13.92-.2,27.83.1,41.75,0.1,4-1,6.09-4.6,7.92-4.4,2.13-9.1,2.95-13.6,4.37-1.9.61-3.9,0.61-5.2-1.63s-1.8-4.37-.7-6.7a16.52,16.52,0,0,1,1.7-2c1-1.42.5-2.44-1.2-2.34-2.3.2-4.5,0.91-6.8,0.91-9.2.1-18.5,0.1-27.7,0.1-3.9,0-4.1-.51-3.4-4.47s2.5-7.11,4.2-10.46c0.9-1.83,1.7-3.56,2.7-5.28,5.2-9.34,3.6-18-2.4-26.1-1.3-1.83-1.7-3.15-1-5.38a48.88,48.88,0,0,1,2.1-6.09c4.2-8.74,8.4-17.47,13.2-25.9a5.4,5.4,0,0,1,4.9-3.15c8.6-.81,17.2-2.13,25.9-2.23,2.4,0,4.8-1.12,7.3-1,4.5,0.2,4.5.1,4.6,4.47v8.63c-0.1,11.48-.1,23.06-0.1,34.64h0Z"/><path class="cls-2" d="M830.8,84.85c2,0.1,3.2-.1,4.4.51,6.9,3.45,13.4,1.12,19.7-1.73,2.6-1.22,3.6-3.76,4.1-6.6,1-5.49,2-11,3.2-16.35a35.66,35.66,0,0,1,7.7-15.74c4.8-5.79,11.4-7.82,18.3-8.74,3.1-.41,6.2-1.52,9.5-1.32,3.8,0.2,4.1.3,5.1,4.06,2.2,8.84,4.1,17.88,6.6,26.61a79.23,79.23,0,0,1,3.1,26.1c-0.4,7.11,1.4,13.92,3.9,20.52,0.4,1,1.3,2.13,1.1,2.95-1.2,3.76,1.3,3.25,3.4,3.25H923c1.9,0.2,3.9-.41,5.8.41-0.9,2.64-3.6,2.54-5.5,3.66-1.2.71-2.7,1-3.9,1.63-3.9,1.83-4,1.83-4.3-2.54a2.08,2.08,0,0,0-1.5-1.93c-2.5-.91-5.1-1.52-7.6-2.54-1.8-.71-3.8-0.91-4.9-2.95-0.5-1-1.7-1.22-2.8-1.22-6,0-10.6-2.44-13.6-7.72a4,4,0,0,0-5-1.93c-11,2.84-22.2,4.47-33.2,6.81q-17.4,3.66-34.8,7a9.09,9.09,0,0,1-3.7-.1c-1.8-.51-2.1-3.66-0.6-5.38,4-4.16,7.9-8.33,12.1-12.19,1.9-1.83,1.6-3.25.4-5.08-3.4-4.88-2.8-6.4,2.8-8C825.6,85.76,828.6,85.25,830.8,84.85Z"/><path class="cls-2" d="M809.2,168.44c-7.4,0-7.2,0-8.9-6.3-1.1-4.06-.6-8.74-3.9-12.09-0.4-.41-0.3-1.42-0.3-2.13,0.1-5.79-1.1-11.38-2.1-17.06-0.5-3.15-.1-6,2.7-8.23,1.9-1.52,3.5-3.56,5.4-5.28,0.9-.81,1.7-1.12,2.4.41,1.4,2.95,2.2,3.35,5.1,2.74,3.3-.71,6.5-1.52,9.8-2.23,11.4-2.44,22.8-4.67,34.2-7,8.3-1.73,16.6-3.45,24.9-5.08,2.2-.41,3.3,0,4.5,1.52,0.1,0.1.2,0.3,0.3,0.41,2.8,4.88,6.8,7.72,12.7,7,0.6-.1,1.5-0.2,1.7.71a1.93,1.93,0,0,1-.7,1.32c-2.7,2.34-3.9,5.59-5.3,8.74-1.6,3.66-1.1,5.89,2.4,8.13,3.3,2.13,2.9,6,4.9,8.63a0.94,0.94,0,0,1-.8,1.52c-2.8.2-4.2,1.52-4.1,4.47,0.1,1.63-1,1.93-2.4,2.23-6.7,1.73-13.4,3-20.2,4.27-5.9,1.12-11.7,2.54-17.6,3.66-11.1,2.13-22.2,4.06-33.3,6.2a7.42,7.42,0,0,0-3,.91A9.91,9.91,0,0,1,809.2,168.44Z"/><path class="cls-2" d="M784.7,246.55h1.6c2,0.2,2.4.91,1.3,2.84a15.46,15.46,0,0,1-6.2,6.5,125.85,125.85,0,0,0-12.7,7.82c-7.2,4.67-14.5,9-21.1,14.42-2,1.73-4.4,3.15-5.1,6-0.5,1.93-1.9,2.44-3.6,2.44-5.8.2-11.6,0.91-17.5,1.32a135,135,0,0,0-14.2,1.63c-4.3.81-8.8,0.91-13.2,1.32-9.1,1-18.3,1.22-27.4,2.44-9.8,1.22-19.6,2.34-29.5,3.15-1.2.1-2.4,0.71-3.6,0.81-2.2.3-3.3-1.22-2.4-3.35,1.8-4.47,3.8-8.94,5.4-13.51A92.07,92.07,0,0,0,639.8,269c0.5-2.64,1.8-3.86,4.2-4.06,6.3-.41,12.5-2.23,18.9-2.34,2.6-.1,5.9-0.1,6.3-4.16,0.1-.81,1-0.91,1.7-1.12,1.6-.3,3.1-1.12,4.6-1,6.3,0.51,12.4-.61,18.5-1.42,6.3-.81,12.8.2,19-1.73a1.07,1.07,0,0,1,.5-0.1c8.7-.1,17.3-1.42,25.9-2,5.3-.41,10.6-0.91,15.8-1.52,9.3-1.12,18.7-.71,27.9-2.95a8.42,8.42,0,0,1,1.6,0h0Z"/><path class="cls-2" d="M887.2,248.69c2,0.1,3.8-.91,5.6-1.42,1-.3,2-0.91,3-0.3a1.62,1.62,0,0,1,.9,1.22,1.77,1.77,0,0,1-.8,1.22c-2.2.61-4.5,1.12-6.7,1.52a10.27,10.27,0,0,0-3.5,1.22c-3.7,2-4.2,4.57-1.4,7.72,1,1.12,2,2,3,3.15,2.1,2.44,2,4-.6,5.79-2,1.42-4.2,2.64-6.4,4-4.2,2.44-8,5.08-10.9,9.24-1.8,2.64-4.4,4.67-6.7,7-3.6,3.56-4.6,3.76-8.4.2-4.5-4.16-9.8-6.5-15.3-8.43-6-2.23-12.3-1.73-18.4-.81a15.61,15.61,0,0,1-7.8-.41c-1.7-.61-3-1.32-3.1-3.25s-1.3-2.34-2.9-2.34a15.26,15.26,0,0,0-4.3.1c-5.3,1.52-10.9.61-16.3,2-6.7,1.73-13.6,2.64-19.4,7a5.94,5.94,0,0,1-2,.81c-6.1,1.32-12.2,1.63-18.4,2a1.35,1.35,0,0,1-1.6-1,2.06,2.06,0,0,1,.9-1.83c4.6-3.45,9-6.91,13.8-10.06,8.2-5.38,16.4-10.67,24.7-15.85,3-1.93,5.3-4.27,6.1-7.82,0.6-2.74,2.4-3.25,5-3.66,11.2-1.83,22.5-2.13,33.7-3.86,6.9-1,13.9-2.23,21-2.64a117.34,117.34,0,0,0,15.7-2.44c8.1-1.73,16.4-2.54,24.4-4.88a1.63,1.63,0,0,1,2,.41c0.3,0.71-.4,1.32-0.9,1.73-1.8,1.63-3.3,3.66-5.8,4.57s-3.9,4.88-3,7.41A5.71,5.71,0,0,0,887.2,248.69Z"/><path class="cls-2" d="M595.8,344.27h11.5c4.3,0.1,5.1.61,6.4,5a19.93,19.93,0,0,1-2,16.66c-1.8,2.95-3.2,6-4.8,9-2,3.76-2.3,7.92-2.1,12.09,0.1,1.63.5,2.84,2.4,2.84,4.8-.2,9.5.3,14.3-0.61,6.1-1.12,12.4-.3,18.6-0.41,0.6,0,1.7.1,1.3,1.12-0.9,2.64.5,5,1.2,7.31,0.6,1.83-.3,2.34-1.8,2.34a21.38,21.38,0,0,0-8.4,1.22,8.15,8.15,0,0,0-3.6,2.13c-1.8,2-1.7,3.56.2,5.59a9.51,9.51,0,0,0,4.8,3.25,14,14,0,0,1,4.2,2.23,0.89,0.89,0,0,1-.3,1.63,13.07,13.07,0,0,1-2.1.3c-2,.1-3.7,1.32-3.9,3-0.3,3.35-2.3,3.45-4.8,3.45-3.4-.1-6.8.1-10.1-0.1-3.9-.1-7.1-1-9-5.28s-4.7-5.18-9.2-4.37a10.13,10.13,0,0,0-3.5,1.12c-5.4,2.84-10.9,2.34-16.6,1.22a98.7,98.7,0,0,0-11-1.42,4,4,0,0,1-3.6-2.74c-1.3-3.15-2.3-6.2-.9-9.85,2-5,1.7-10.26,0-15.34a116.73,116.73,0,0,0-7.1-18.08,12,12,0,0,1-1.4-6.2c0.1-3.45,0-6.91,0-10.26,0-5.08.8-5.79,5.9-5.89,3.2-.1,6.4-0.2,9.6,0C579.2,346,588.1,343.35,595.8,344.27Z"/><path class="cls-2" d="M793.9,156.66a44.1,44.1,0,0,1-2.8,17.88c-1.4,3.56-3.5,5.89-6.9,6.81-8.5,2.23-11.8,8.43-12.7,16.56-0.4,3.86-.9,4.27-4.6,4.27a8.39,8.39,0,0,1-3.6-.51c-3.8-1.93-7.6-1.52-11.3-.41s-7.4.81-11,1.83c-3.1.91-6.3,0.41-8.1-3.35a8.39,8.39,0,0,0-5.6-4.67c-2.1-.61-2.5-1.93-3-3.76-1.3-4.57-.9-9.24-1.7-13.81-1.3-7.92-2-15.95-3-24-0.6-4.77-1.7-9.55-1.4-14.42,0.1-1.63.4-3,2.3-2.84,5.4,0.41,10.6-.91,15.9-1.12a7.41,7.41,0,0,1,4.6.91c7,4.06,14.7,4.37,22.2,3a63.54,63.54,0,0,0,24.8-9.24c2.4-1.52,3.6-.91,3.8,1.83C792.3,139.8,794.2,148,793.9,156.66Z"/><path class="cls-2" d="M762.4,246.55c-1.1-.1-1.6,0-2.1-0.1-0.9-.2-1.3-0.81-0.5-1.42,6.5-5,11.6-11.68,18.7-15.95a3.92,3.92,0,0,1,3.5-.61c7.4,2,14.3-.51,21.3-2.34,7.4-1.93,11.6-6.91,14.5-13.71a64.28,64.28,0,0,0,3.9-11.17,5.15,5.15,0,0,1,3.6-4.16c0.5-.2,1-0.3,1.5-0.51,9-2.54,13.5-9.34,16.3-17.78,1.2-3.76,1.1-3.76,4.9-3,1.7,0.3,3.1.2,4.1-1.52,1.2-2,3-1.52,4.6-.51,2.5,1.42,4.9,2.95,7.4,4.27s3.1,2.95,2.1,5.28c-1.3,3.15-.2,5.08,2.4,6.81s4.8,3.66,7.2,5.49c3.8,3,5.5,7.41,6.7,12,0.7,2.74.1,3.56-3.4,5.49-0.6.41-1.3,0.71-1.1,1.52a1.84,1.84,0,0,0,1,1.12c3.7,1,6.7,3.25,9.9,5.18,0.6,0.41,1.3.61,1.9,1,1.6,1.42,4.3,2.64,3.8,4.67s-3.3,2.13-5.4,2.54c-5.4,1-10.6,2.64-16.1,3.35-6.5.91-12.9,2-19.3,3s-12.8,2.34-19.3,2.95c-4.6.41-9.2,0.81-13.7,1.42l-13.6,1.83a112.3,112.3,0,0,1-11.6,1.22c-9.1.2-17.9,2.34-26.9,2.44C766.3,245.54,764.3,247.06,762.4,246.55Z"/><path class="cls-2" d="M644.9,262.91c-1.5-.2-2.7.3-3.3-1-0.4-.91.3-1.83,0.8-2.44a54,54,0,0,1,3.9-4.47c1.1-1.12,1.7-2.34.8-3.86-0.6-1-1.8-2-.1-3,1.5-.91,3.1-1.93,4.7,0a14,14,0,0,0,3.2,2.74c2.6,1.63,4,.91,4.4-1.93a7.62,7.62,0,0,0,0-2.13c-0.1-1.83.5-2.74,2.3-3.66,4.6-2.34,9-5.18,9.6-11.17,0.2-1.73,1.8-1.52,3-1.52,3.2-.1,6.3,0,9.5-1a31.86,31.86,0,0,0,5.4-2.23c3.8-2.23,7.8-3.76,12.3-3.25a3.76,3.76,0,0,0,3.9-2.23c1.9-3.45,4-6.81,6-10.16s4.4-6.5,9.1-6.2c2.7,0.1,3.7-2.44,4.7-4.57,1.5-3.25,1.5-3.25,4.1-.71a2.73,2.73,0,0,1,.7.81c3.8,5.59,9.1,5.08,14.8,4.16,6.8-1.12,13.5-2.44,20.5-.61,2.1,0.61,3.1,1.63,3,3.76a21,21,0,0,0,7,16.86c1.5,1.32,1.2,2.34-.2,3.45a111.88,111.88,0,0,0-19.6,18.18c-1.1,1.42-2.5,1-3.9,1.12-10,.71-20.1,1.22-30.1,2.34-7.4.81-14.8,1.42-22.1,2.23-5.5.61-11,.3-16.4,1a103.61,103.61,0,0,1-13.7,1c-1.8,0-3.2.81-3.3,2.74-0.2,1.73-1,2.34-2.6,2.74C657,261.38,650.6,261.28,644.9,262.91Z"/><path class="cls-2" d="M671.5,143.46a9,9,0,0,0,8.2-2.74,8.52,8.52,0,0,1,6.3-2.54c8,0.3,15.9-1.73,23.9-1.32,5,0.3,5.7.61,6,6a89.2,89.2,0,0,0,1,9c1.1,7.41,1.2,15,2.4,22.45,1.1,7.11,1.3,14.22,2.9,21.23,1.1,5-.4,7.11-5.5,7.41-2.7.2-4.3,1.73-5.6,3.66-2.1,3.35-4.5,6.5-6.2,10.06a16.57,16.57,0,0,1-2.3,3.56c-0.7.91-1.8,1.42-2.8,0.41-2.2-2.13-3.7-1.42-5.1.91a1.33,1.33,0,0,1-.9.61c-4-.1-6.9,2.64-10.1,4.27-4.5,2.23-9.4,1.22-14.1,2.13-2.7.51-4.4-2.54-3.2-5.18,1.3-2.95,2.1-6.09,4.1-8.74,2.2-3.15,3.3-6.5,1.9-10.67-1.2-3.45-.7-7.41-1-11.17-0.5-5.18-1.2-10.36-1.5-15.54-0.2-5.38-1.1-10.67-1.7-16-0.5-5-1.1-10-1.4-15-0.2-3,0-3.15,3-2.95A4.35,4.35,0,0,0,671.5,143.46Z"/><path class="cls-2" d="M692.2,135.84c-8.6,0-8.5.1-6-5.89,1.9-4.47,3.7-8.94,4.1-13.92,0.6-6-1-11.38-3.5-16.66a62.5,62.5,0,0,1-2.7-5.89c-1.2-3-1.6-6.09,0-9.34a13.25,13.25,0,0,0,1.1-9.85c-0.9-3.35.4-4.37,3.9-3.76,5.9,0.91,9.4-2,9.8-8.23,0.2-3.45,1.3-6.7,1.2-10.16-0.1-2.44,1.1-3,3.5-2.34a51.19,51.19,0,0,1,7.5,2.74c3,1.52,5.7,3.56,9.4,3,1.3-.2,2.2.91,3,1.93,4.6,6.09,4,12.6.9,18.89-1.8,3.66-2,7.21-1.9,11,0.1,3,1.3,5.69,4.2,7,2.5,1.12,5.3-.3,7.7-3.35,0.8-1,1.6-1.93,2.4-2.84,2.9-2.95,4.2-2.84,6.9.41a20.2,20.2,0,0,1,3.2,6.2c0.8,2.23,1.4,4.47,2.2,6.7,2.2,6.4,1.3,6.81-3.3,11.07-0.4.3-1,.51-1.4,0.81-4.9,4-8.6,8.53-8.1,15.44,0.2,3.56-.1,3.56-3.5,3.76-8.1.51-16.2,1.32-24.3,1.93C702.3,135,696.3,135.53,692.2,135.84Z"/><path class="cls-2" d="M800.2,276.92c3.8-.61,7,0.2,9.5,3.45a5.94,5.94,0,0,0,4.8,1.93c3.7-.1,7.4.3,11.1-0.71,4.8-1.22,9.5,0,14,1.63,5.6,2,10.7,4.77,14.9,9.14,0.9,1,1.1,1.73-.1,2.64a27.9,27.9,0,0,0-3.4,2.64c-0.8.71-1.9,1.83-1.4,2.74,2,3.76-1.3,5.89-2.1,8.84-1.6,5.59-5.7,9-9.8,12.49a48,48,0,0,1-10.8,6.91c-3.2,1.52-6.7,2.54-8.9,5.69-0.8,1.12-1.7.91-2.6-.2a131.37,131.37,0,0,0-14.8-16.86c-7.3-6.81-14.7-13.51-22-20.31a4.67,4.67,0,0,0-3.3-1.42c-3.1.1-5.3-2-7.6-3.56s-2.1-2.64-.3-4.88a20.69,20.69,0,0,1,10.3-6.5C785,278.14,792.6,277.33,800.2,276.92Z"/><path class="cls-2" d="M788.5,227.25c-6.2-.81-11.5-2.54-14.6-8.13a26.39,26.39,0,0,1-3.2-8c-0.6-3-1.1-6.2,1.8-8.43,1.9-1.52,2.1-3.56,2.1-5.79,0.1-6.09,4.3-11.78,10.1-13a11.05,11.05,0,0,0,8.7-7.62,38.87,38.87,0,0,0,2.7-12.6,1.08,1.08,0,0,1,.9-1.12,1,1,0,0,1,1,1c0.5,2.23.5,5.18,2.1,6.5,2.1,1.73,5.1.51,7.8,0.61q3.75,0.15,7.5,0c2.5-.1,4.1.81,4.3,3.66a17.57,17.57,0,0,0,.9,3c0.2,0.61.2,1.52,1.2,1.42a1.19,1.19,0,0,0,.9-1.12c1.2-3.35,3.9-5,7.1-6a45,45,0,0,1,16.8-2.13,4.16,4.16,0,0,1,2,.41,2.05,2.05,0,0,1,.7,2.44c-0.2,1-.9.81-1.6,0.71-1.9-.41-3.8-0.91-5.7-1.32a2.29,2.29,0,0,0-2.5.51c-0.8,1,.4,1.52.9,2.13a2.42,2.42,0,0,1,.3,2c-1.3,8.74-8.4,16.46-16.9,18.08-2.5.51-4,1.42-4.3,4.47-0.7,7.62-5,13.71-8.7,20a5.52,5.52,0,0,1-2.7,2.54C801.7,224.31,794.9,225.73,788.5,227.25Z"/><path class="cls-2" d="M655.9,50.62c-0.1-.2-0.5-0.71-0.7-1.12-1.2-2.54-3.4-3.35-6.1-3.76a157.83,157.83,0,0,1-23.8-5.18c-4.1-1.22-8.2-2.23-12.3-3.45-0.6-.2-1.5-0.2-1.4-1.22a1.18,1.18,0,0,1,1.1-.91c6.7-2.34,12.8-6.2,19.8-7.82,1.7-.41,3-0.81,4.3.71s3,1.73,4.9,1.63a22.58,22.58,0,0,1,12.7,2.74c8.3,4.57,16.9,3.15,25-1a54.31,54.31,0,0,1,12.5-4.57c1.3-.3,2.8-0.51,2.2,1.63-0.5,1.83.3,2.23,1.8,2.34,2.8,0.1,5.7-.41,8.4,1,0.5,0.2,1.3.41,1.3,0.71a1.42,1.42,0,0,1-1.3,1.42,111.08,111.08,0,0,1-18,4.47c-6.6,1.12-13.3,1.52-19.9,3.25-4.2,1.12-7.7,2.74-8.7,7.52A2.15,2.15,0,0,1,655.9,50.62Z"/><path class="cls-3" d="M875,180.84a33.71,33.71,0,0,0,.3,4c0.4,3.15-.4,3.76-3.2,2.64-2.2-.81-3.7-2.13-3.4-4.77a25.1,25.1,0,0,0,0-2.74,3.9,3.9,0,0,0-2.7-4.06c-3.2-1.42-6.3-3.25-9.4-5a4.57,4.57,0,0,1-1.8-1.12c-1.9-4.27-5.7-4-9.1-3.45-4.3.71-8.8,0.61-13.1,1.73-3.1.81-6.3,1.22-8.6,3.76-0.5.51-1.4,0.91-1.8,0.1a11.28,11.28,0,0,1-1.1-3.56,1,1,0,0,1,1-1c3.8-.1,7.2-1.83,10.9-2.13,6.9-.51,13.5-2.54,20.3-3.66,9.2-1.52,18.3-3.66,27.5-5.49,3.6-.71,4.5-0.41,4.9,3.25s1.7,7.31,2.5,11a64.63,64.63,0,0,0,3,9.75c1.7,4.47,2.6,4.88,7.3,4.47,1-.1,2.1-0.51,3.1-0.61a0.8,0.8,0,0,1,1,.91c-0.4,2.44-.7,5-1.3,7.41-0.5,1.83-1.8,2.64-3.7,1.63a25.33,25.33,0,0,1-11.1-10.46,3.06,3.06,0,0,1-.5-1.52c0.4-5.89-2.7-11.17-3.3-16.86-0.1-1-.5-1.83-1.5-1.93a1.4,1.4,0,0,0-1.5,1.22C877.6,170,875.5,175.55,875,180.84Z"/><path class="cls-2" d="M927.5,61.28c-0.8-5.79,1.6-12.09,1.1-18.59-0.2-2.23,1.5-3,3.1-4,5.1-2.95,5.6-4.88,2.9-10.06-0.5-.91-1.8-1.63-0.7-2.74a21.23,21.23,0,0,1,3.5-3.25c0.5-.41.9,0.3,1.1,0.81l1.5,5.18c3.5,10.87,6.7,21.94,12,32.2,2,4,1.5,5.18-2.4,6.5-6,2-12.1,4-18.2,5.69-3.1.91-3.7,0.3-3.9-2.95C927.4,67.48,927.5,64.84,927.5,61.28Z"/><path class="cls-2" d="M916.9,78.14c-1.7.1-2-.81-2.3-1.93l-3.9-16.76c-1.7-7.11-3.4-14.32-5.3-21.43-0.4-1.73-.3-2.84,1.7-3s3.7-1.22,5.7-1.12c5.6,0.41,10.9-1.12,16-3.45,1.2-.51,2.2-0.91,3.4.1,1.6,1.42,1.7,2.54.3,4.06a1.79,1.79,0,0,1-.8.71c-5.7,2.34-5.9,7.62-6.3,12.6-0.5,5.59.3,11.17-1.1,16.66-0.5,1.93.2,3.86,0.7,5.79,1,3.66.2,4.67-3.3,6C920,77,918.3,77.64,916.9,78.14Z"/><path class="cls-2" d="M915,83.32a2.08,2.08,0,0,1,1.5-2.54c11-2.95,21.6-7.21,32.4-10.56,1.6-.51,2,0.2,1.5,1.63-1.6,4.57.1,7.62,4.2,9.75,2.6,1.32,4.5,3.45,6.6,5.49a5.18,5.18,0,0,1,1.4,5c-0.2,1.42-.6,2.95-2.1,3.45s-2.3-.61-3.2-1.52c-1.7-1.63-3.4-3.25-4.9-5s-3.4-2-5.7-1.52c-9.1,2.23-18.3,4.06-27.4,6.2-2.9.71-3.5,1.32-3.6-2.95C915.6,88.3,916.1,85.76,915,83.32Z"/><path class="cls-3" d="M887.9,157.37c-0.1-2,.7-3,2.7-3.15a20.91,20.91,0,0,0,3.1-.91,7.66,7.66,0,0,1,1.6-.2c4.3-.3.1-5.28,3.7-6.5s3.4-1.73,1.3-6.5a4.54,4.54,0,0,1-.5-1.52c0.2-3.45-1.7-5.28-4.5-6.6-1.8-.81-2-1.93-1.5-3.86a21.68,21.68,0,0,1,2.9-5.69c2.6-4.06,3.3-4.16,7.9-2.74,1.9,0.61,3.8,1,5.6,1.63a3.1,3.1,0,0,1,2.3,3.25,2.59,2.59,0,0,1-2.4,2.95c-0.7.1-1.3,0.61-2,.71-2.3.41-2.8,1.52-2.1,3.76,2.1,6.2,2.3,12.6,2.2,19.2-0.1,5.28-2.4,10.06-8.5,11.38-1.8.41-3.4,0.81-5-.61-0.8-.71-1.9-1.42-2.9-0.71-1.2.91-.7,2.23-0.5,3.45,0.6,5.18,3.6,8.84,7.5,11.88a2.18,2.18,0,0,0,.5.3c1.4,0.81,3.3,1.63,3,3.35s-2.5,1.52-3.9,2a3,3,0,0,1-4-1.73,34.92,34.92,0,0,1-2.2-4.88c-1.5-5.38-2.8-10.77-4.2-16.15A14.54,14.54,0,0,1,887.9,157.37Z"/><path class="cls-3" d="M915.7,100.08c-0.1-1.93.4-2.74,1.8-3.45,2.5-1.22,5.2-.71,7.8-1.52,4.4-1.32,8.9-2.34,13.3-3.45,2-.51,3,0,4,2.13,3.7,8.43,3.9,8.53-4.7,11.48-5.2,1.83-10.4,3.56-15.2,6.4-1.9,1.12-3.2,1-4.1-1.32A76.63,76.63,0,0,1,915.7,100.08Z"/><path class="cls-5" d="M958.2,98.66a2.9,2.9,0,0,1-.7,1,3.77,3.77,0,0,1-1,.3c-7.5,1.73-9.7.2-11.5-7.82-0.3-1.32,1.7-3,3.1-2.64a2.86,2.86,0,0,1,1.3.81c2.4,2.34,4.7,4.88,7.6,6.7A9.69,9.69,0,0,1,958.2,98.66Z"/><path class="cls-6" d="M100.22,268.34a26.87,26.87,0,0,0,21.94-2.71c1.75-1.08,3.42-2.39,5.42-2.85,3.9-.91,7.68,1.57,11,3.74a104.85,104.85,0,0,0,70.31,15.66c5.22-6.9,16.4-8.21,23.07-2.71,3.09,2.55,5.14,6.17,8.17,8.8,6.86,6,17.18,5.57,26,3.26s17.34-6.22,26.43-6.26c16.83-.06,31.24,13.08,48,14.52,9,0.78,17.94-1.9,27-2.56,19.58-1.44,38.59,6.6,58.15,8.17,26.56,2.14,56.22-7,78.16,8.13,2.44,1.68,4.89,3.7,7.84,3.93a14.09,14.09,0,0,0,4.26-.54l97.67-22.6"/><path class="cls-6" d="M514.8,214.08c-20.84-18.54-54.67-20.36-77.39-4.17-7.13,5.08-13.4,11.79-21.72,14.52-5.54,1.82-11.51,1.7-17.35,1.55l-42.25-1a89.72,89.72,0,0,1-16-1.35c-10.61-2.19-20-8.12-30.17-11.91-31.95-12-67.43-2-101.54-2.5-11.06-.16-22.38-1.4-33,1.68-21.48,6.23-34.07,27.87-44.5,47.66"/><path class="cls-6" d="M97.79,268.29c-7.89,1.41-17.26,2.36-22.72-3.5-2.45-2.63-3.59-6.19-4.66-9.62L42.29,165l-4.2-13.46C32.28,132.91,26.4,113.79,27.44,94.3c0.9-17,7-33.24,14.06-48.71,3-6.62,6.31-13.3,11.56-18.32S65.95,19.13,73,21.06c2.61,0.72,5,2.1,7.65,2.74,7,1.7,14-1.88,21.14-2.67,10.84-1.2,21.47,4.24,29.59,11.52S145.7,49,152.92,57.21c24.32,27.56,61,46.7,72.17,81.7-5.56.63-12,2.89-16,6.82-6.44,6.35-9.14,15.79-15.71,22-5.83,5.51-14.14,7.92-19.72,13.7-5.06,5.24-7.21,12.56-9.19,19.57l-3.62,12.81"/><rect class="cls-7" x="-0.32" y="-2.51" width="998.82" height="431.39"/><path class="cls-8" d="M802,386c-10.18-20.19-.52-44.79,12.56-63.23s30-35.16,36.11-56.91c1.3-4.58,2.06-9.55.5-14-2.3-6.62-8.92-10.55-15.05-13.93l-32.88-18.1c-11.08-6.1-24.06-12.37-35.85-7.76-3.42,1.34-6.94,3.6-10.48,2.59-2.84-.81-4.66-3.49-6.39-5.88-28.36-39.19-89.41-42.8-117.76-82-7.26-10-12.05-22.08-21.4-30.21C590.27,78.21,555.22,86.92,533,70c-6.93-5.28-12-12.62-18-18.92-23.54-24.63-60.94-31.47-94.69-26.81-22.5,3.11-44.95,10.69-67.42,7.39-2.11-8.82-13.74-10.63-22.8-10.2a303.5,303.5,0,0,0-76.38,13.63C238.4,39.92,223.27,46,207.28,47.64c-23.64,2.41-47-5.07-69.62-12.46"/><path class="cls-8" d="M647.71,224.9a103,103,0,0,0-29.77-27.77c-2-1.23-4.27-2.43-6.58-2s-3.95,2.2-5.44,3.93a202.38,202.38,0,0,0-30.38,47.24c-1.28,2.77-2.63,5.73-5.22,7.33-2.11,1.31-4.71,1.49-7.18,1.63-10.58.6-21.39,1.11-31.28,4.92s-18.9,11.61-21.21,22c-2.72,12.22,4.08,26-1.85,37.06a62.65,62.65,0,0,0-32.23-12.86c-11.61-1.13-23.3,1-35,.9-30.11-.3-59.92-15.6-89.31-9-5.45,1.22-10.95,3.2-16.47,2.37-6.4-1-11.58-5.46-17.24-8.6-19.48-10.82-43.47-5.17-65.38-1.15-3.64.67-7.5,1.27-11-.07-5.65-2.19-8.32-8.76-13.42-12-8.65-5.57-19.74.12-29.69,2.73-24.44,6.42-49.23-7.07-70.9-20.05a62,62,0,0,1-29.13,18.07"/><path class="cls-8" d="M139.17,245.06c3.77-15.33,17.36-26.7,32.2-32.1s30.95-5.79,46.73-6.12c30-.64,60.43-1.22,89.35,6.68,10.5,2.87,20.7,6.83,31.29,9.33,16.94,4,34.51,4.15,51.91,4.28,7.25,0.06,14.61.1,21.58-1.89,12.32-3.52,22-12.93,33.37-18.79a63.2,63.2,0,0,1,54.21-1.34c6.44,2.92,12.6,7,19.63,7.72,5,0.51,10-.77,14.88-2.26,14.78-4.54,28.94-11.1,44-14.62s31.7-3.72,45.11,4c11.16,6.39,18.75,17.37,27.33,27s19.7,18.52,32.56,18.38c13.14-.15,24.7-9.78,37.83-10.21a28.24,28.24,0,0,1,25,14,182.14,182.14,0,0,1,41.46-37.68"/><path class="cls-8" d="M589,321.54c2.39,6.43,10.22,9.14,17.08,8.87s13.51-2.66,20.37-2.84c17.7-.45,34.3,13.74,51.57,9.86,7.61-1.71,14.37-6.85,22.17-7.14,9-.34,16.87,5.85,23.78,11.7l52.49,44.49c3.81,3.23,7.9,6.59,12.85,7.3s10.79-2.51,10.94-7.5c-7.46-1.78-11.59-9.54-14.79-16.51l-24.12-52.53c8.78-12.07,22-20.08,35-27.26,17-9.33,34.47-17.84,52.74-24.27,4.47-1.57,9.11-3.1,12.7-6.19,8.69-7.5,8.09-21.35,3.79-32s-11.49-20.16-14.07-31.34C847.93,180.55,854.75,163,868,154"/><path class="cls-8" d="M510.75,315.84c-2-15.88-3.32-34,7.44-45.85,9.95-11,26.46-12.25,41.25-12.51,3.35-.06,7-0.19,9.6-2.27,2.18-1.72,3.25-4.45,4.29-7a149.65,149.65,0,0,1,32.06-48.65,10.52,10.52,0,0,1,4.31-3c2.24-.65,4.63.2,6.77,1.14a77.65,77.65,0,0,1,28.11,20.95c8.22,9.72,15.11,22.24,27.39,25.59,17.8,4.85,35.81-12.73,53.76-8.49,3,0.7,6.74,1.73,8.56-.72a6.51,6.51,0,0,0,.93-3.69c0.5-12.39-1.87-25,.59-37.11,2.54-12.54,10.14-24.36,8.74-37.08a45.19,45.19,0,0,1-16.11-40.28"/><path class="cls-6" d="M227.24,138.89c8.56-2.89,17.21-5.8,26.21-6.58,7.7-.66,15.43.25,23.1,1.17L314.08,138c7.15,0.85,14.82,1.95,20,6.89a28,28,0,0,1,5.11,7.14A81.61,81.61,0,0,1,349,193.85"/><path class="cls-6" d="M352.18,197.58A37.92,37.92,0,0,0,373,203"/><path class="cls-6" d="M457.7,197.47c17.38-24.71,45.43-40,74.42-47.4s59.24-7.72,89.15-7.69l1.21,7.89a130.67,130.67,0,0,0,29.42-2"/><path class="cls-6" d="M657.19,147.25c-11.37-4-19.29-14.28-25.71-24.5s-12.29-21.24-21.85-28.6c-11.23-8.64-25.91-11-39.93-13.11L538,76.3"/><path class="cls-6" d="M654.94,150.82l-45,44c-9.17-.32-19.31.7-28.48,0.37a37.37,37.37,0,0,0-10.34.59c-6.29,1.56-11.48,6.31-17.84,7.56-1.78.35-3.62,0.42-5.35,0.94a29.7,29.7,0,0,0-5.59,2.78c-7.68,4.23-16.57,5.54-25.25,6.78"/><path class="cls-6" d="M799.51,403.22l-76-60a51.61,51.61,0,0,1-8.17-7.46c-3.42-4.17-5.44-9.28-7.41-14.3l-26.53-67.66c-1-2.5-2.07-5.14-4.25-6.69-1.83-1.3-4.14-1.64-6.29-2.3-11.4-3.5-17.34-15.56-24.63-25a72,72,0,0,0-34.46-24.27c-16.06,14.44-29.21,33.33-38.29,52.92-1.11,2.39-2.29,5-4.57,6.3-2.06,1.21-4.6,1.16-7,1.1-17.17-.39-37,2.87-45.77,17.66-7.15,12.09-4.12,27.31-5.31,41.31-0.89,10.52-6.32,21.46-6.58,32"/><path class="cls-6" d="M503.77,355.9l4.53,41.67c0.24,2.24.62,4.74,2.39,6.14,1.5,1.18,3.57,1.23,5.47,1.22l16.83-.06"/><path class="cls-6" d="M966.22,24.91c-13,2.38-20.29,16.17-25.08,28.54S930.7,79.86,918.24,84.4c-4.24,1.55-8.95,1.8-12.94,3.91-8.4,4.43-10.84,15.18-16.82,22.56-7.27,9-19.34,12.47-28.2,19.89-8,6.73-13,16.32-18.94,24.94-9.47,13.72-21.68,25.28-33.8,36.72L774.2,223.89,721,274.16c-7.16,6.77-14.37,13.57-22.57,19a111.71,111.71,0,0,1-12.68,7.22A153.2,153.2,0,0,1,648,313.24c-6.37,1.27-12.81,2.13-19.24,3.1a553.36,553.36,0,0,0-117.31,31.27l-5.46.73c-5.54,2.22-10.89,4.86-16.24,7.5l-49.49,24.43c-11.21,5.53-22.47,11.09-34.32,15"/><path class="cls-6" d="M802.15,409.48a91.88,91.88,0,0,0,9.23,16.8"/><path class="cls-6" d="M139.29,37.22c17.94-1,34.32,10.13,52.12,12.55,26.35,3.59,51-11.89,76.58-19.3,23.27-6.74,47.89-6.78,72.12-6.77,3.28,0,6.76.06,9.55,1.79s4.4,5.79,2.42,8.41c14.47-7.72,32.92-.46,48.39-5.91,3.24-1.14,6.28-2.83,9.57-3.83,5.08-1.55,10.5-1.42,15.81-1.27L464.26,24c5.31,0.15,11.08.47,15.09,4,2.36,2.05,3.85,5,6.43,6.79,4.57,3.14,10.77,1.53,16.22,2.56,10,1.9,15.8,12.09,20.88,20.94s12.78,18.41,22.95,17.58"/><path class="cls-6" d="M661.41,150.42a42.74,42.74,0,0,0,9.4,5.89L722,182.48c5,2.58,10.2,5.24,14.05,9.39"/><path class="cls-6" d="M657.75,154.06L667,182.54l3,9.19c2.77,8.54,5.54,17.1,7.27,25.9a113.7,113.7,0,0,1,2.06,26.29"/><path class="cls-6" d="M735,194.88l-0.08,40.85c-18.35-3.44-36.64,4.84-53.47,12.9"/><path class="cls-6" d="M661.27,146.25c4.56-3.26,10,4.07,15.62,3.76,2.85-.16,5.15-2.29,7.18-4.3,2.61-2.58,5.27-5.24,6.78-8.58s1.63-7.57-.66-10.43"/><path class="cls-6" d="M733.91,185A25.27,25.27,0,0,0,721.5,163.4c-2.2-1.27-4.6-2.2-6.66-3.69-5.89-4.26-7.82-12.2-8-19.47s1.07-14.64-.36-21.77a50.13,50.13,0,0,0-3.69-10.55,157.71,157.71,0,0,0-11.89-21.69"/><path class="cls-6" d="M737.26,187c5.08-8.53,9.18-18.95,5.55-28.18a43.81,43.81,0,0,0-5-8.41,137.1,137.1,0,0,1-7.72-12.75c-2-3.77-3.49-9.24,0-11.66"/><path class="cls-6" d="M737.2,239.68a35,35,0,0,1,9.12,15.91c1.47,5.69,1.5,11.73,3.4,17.29,1.22,3.56,3.18,6.83,4.24,10.44,1.7,5.77,1,11.92,1.13,17.94s1.32,12.51,5.78,16.55"/><path class="cls-6" d="M759,319.5c-8.44.68-16.69,2.86-24.88,5l-17.35,4.6"/><path class="cls-6" d="M803.56,387.76c-2.43-9.2-4.88-18.59-4.36-28.09,1.88-34.45,39.83-55.42,52.25-87.61,0.85-2.22,1.64-4.58,3.38-6.2s4.11-2.25,6.18-3.38c6.49-3.56,9.12-11.68,9.14-19.08a41.08,41.08,0,0,0-4.14-18c-3.17-6.49-8-12.09-10.82-18.75-5-11.92-2.72-25.93,3.19-37.42s15.11-20.93,24.38-29.94q12.44-12.09,25.41-23.61c7.29-6.48,15.3-13.1,25-14.32"/><path class="cls-6" d="M763.5,316.21a80.85,80.85,0,0,1,41.32-29.68c7.56-2.34,15.7-3.67,22-8.42,3.28-2.46,5.9-5.74,9.27-8.08s8-3.63,11.55-1.6"/><path class="cls-6" d="M763.74,323.9a131.29,131.29,0,0,1,15.94,33.47c1.42,4.55,2.61,9.22,4.85,13.43,3.81,7.16,10.34,12.42,16.69,17.47"/><path class="cls-6" d="M759.89,299.33c11.35-2,16.88-14.62,25.29-22.5,6.93-6.49,16.15-9.85,25.17-12.84,7.59-2.52,15.28-4.89,23.22-5.9,6.71-.85,15.2.4,17.43,6.79"/><path class="cls-6" d="M738.9,193.34l8.37,13c1.77,2.75,3.64,5.6,6.44,7.29,8.73,5.28,19.47-3.36,29.67-3,11.27,0.36,18.94,11.21,28.74,16.8,8.16,4.66,17.87,5.61,26.74,8.71,5.33,1.86,10.83,5,12.58,10.4,1.8,5.54-.72,12.49,3.11,16.88"/><path class="cls-6" d="M821.91,180.62c4.41-.14,7.55,4,11,6.8a21.36,21.36,0,0,0,15.05,4.76"/><path class="cls-6" d="M849,150.67l17,1.25"/><path class="cls-6" d="M787.15,206a189.66,189.66,0,0,1-11.94-39.56,11.43,11.43,0,0,1-.08-5.57c1.08-3.35,4.76-5,8-6.41a81.29,81.29,0,0,0,37-33.67c2.3-4,4.31-8.37,7.62-11.64,6.15-6.09,15.45-7.36,24.06-8.32l-0.77-6.91c8-.43,14.76-8.28,14-16.23a46.06,46.06,0,0,0,19.29-4.91,62.5,62.5,0,0,1,10.47,20.14"/><path class="cls-6" d="M886.58,69.45c10-12.85,27.34-17,40.79-26.16C942.73,32.81,952.62,16,959.46-1.33"/><path class="cls-6" d="M706,330.93c-7.34-1.35-14.56,2.31-21.9,3.59-5.91,1-12,.49-17.91-0.37a165.57,165.57,0,0,1-22.37-4.83c-5.45-1.58-11-3.46-16.64-2.94-3.37.31-6.61,1.46-9.89,2.28A52,52,0,0,1,590,328"/><path class="cls-6" d="M98.21,269.28a47.55,47.55,0,0,1,3.94,21.89c-0.27,4.53-.91,9.83,2.45,12.88,4.62,4.19,13.07.51,17.67,4.73"/><path class="cls-6" d="M105.72,273.59c4.07,11.18,16.37,17.09,28,19.52s24,2.62,34.76,7.61c17.76,8.19,27.94,27.64,45.05,37.11,14.88,8.23,33,7.83,49.81,5.31s33.58-6.93,50.55-6c33.58,1.95,65.86,24.8,98.45,16.5,5.9-1.5,11.51-4,17.33-5.81,11.1-3.46,22.81-4.39,34.41-5.3,12-.94,25.09-1.57,34.76,5.54"/><path class="cls-6" d="M122,301.88l0.15-6.86a6.29,6.29,0,0,0,4.85-2.14"/><path class="cls-6" d="M124.53,258.47a61.06,61.06,0,0,0-22.63-11.25c-11.84-3.05-25.26-2.83-34.73-10.57"/><path class="cls-6" d="M67.68,235.13a100.83,100.83,0,0,0,7-26.29c0.54-4.34.78-8.82-.48-13C70.8,184.74,58.32,179.35,47,177.07"/><path class="cls-6" d="M43,176.92a34.46,34.46,0,0,0-22.82,5.23"/><path class="cls-6" d="M20.42,159.41c5.35-4.5,12.89,1.85,19.81,2.86,3.71,0.54,7.44-.55,11.07-1.51a152.33,152.33,0,0,1,48.55-4.69c16.37,1.06,33.35,4.7,48.78-.86,5.9-2.13,11.25-5.51,16.85-8.33a96.75,96.75,0,0,1,57.59-9.19"/><circle class="cls-9" cx="510.7" cy="317.49" r="6.07"/><circle class="cls-9" cx="611.82" cy="194.57" r="6.07"/><circle class="cls-9" cx="869" cy="152.93" r="6.07"/><circle class="cls-9" cx="162.41" cy="214" r="6.07"/><circle class="cls-9" cx="789.2" cy="210.08" r="6.07"/><circle class="cls-9" cx="137.86" cy="37.26" r="6.07"/><circle class="cls-9" cx="588.6" cy="322.88" r="6.07"/><path class="cls-6" d="M826,424.4c-3.34-8.46-6.8-17.11-12.84-23.92S797.95,389,789,390.76c-4.8,1-9.6,3.73-14.28,2.3-3.27-1-5.58-3.83-8-6.28-17.58-18-46.54-18.75-70.83-12.27S649.1,393.4,624.39,398c-8.26,1.55-17.23,2.1-24.64-1.84-10.73-5.7-15.12-19-24.78-26.36-17.16-13.08-43.25-3-62.54-12.67-3.42-1.71-6.64-4.06-10.41-4.72-5.32-.93-10.56,1.65-15.35,4.15l-59.74,31.26c-6.84,3.58-14.28,7.26-21.9,6.06"/><path class="cls-10" d="M20.17,160.88h0a0.52,0.52,0,0,1-.41-0.21c-0.34-.45-8.34-11.1-8.34-15.82a8.75,8.75,0,0,1,17.51,0c0,4.78-8,15.37-8.34,15.82A0.52,0.52,0,0,1,20.17,160.88Z"/><circle class="cls-2" cx="19.99" cy="144" r="4.39"/><path class="cls-11" d="M373.85,205.83h0a0.52,0.52,0,0,1-.41-0.21c-0.34-.45-8.34-11.1-8.34-15.82a8.75,8.75,0,0,1,17.51,0c0,4.78-8,15.37-8.34,15.82A0.52,0.52,0,0,1,373.85,205.83Z"/><circle class="cls-2" cx="373.67" cy="188.94" r="4.39"/><path class="cls-12" d="M409.19,397.55h0a0.52,0.52,0,0,1-.41-0.21c-0.34-.45-8.34-11.1-8.34-15.82a8.75,8.75,0,0,1,17.51,0c0,4.78-8,15.37-8.34,15.82A0.52,0.52,0,0,1,409.19,397.55Z"/><circle class="cls-2" cx="409" cy="380.67" r="4.39"/><path class="cls-13" d="M532.84,407.88h0a0.52,0.52,0,0,1-.41-0.21c-0.34-.45-8.34-11.1-8.34-15.82a8.75,8.75,0,0,1,17.51,0c0,4.78-8,15.37-8.34,15.82A0.52,0.52,0,0,1,532.84,407.88Z"/><circle class="cls-2" cx="532.66" cy="391" r="4.39"/><path class="cls-10" d="M609.85,298.5h0a0.52,0.52,0,0,1-.41-0.21c-0.34-.45-8.34-11.1-8.34-15.82a8.75,8.75,0,0,1,17.51,0c0,4.78-8,15.37-8.34,15.82A0.52,0.52,0,0,1,609.85,298.5Z"/><circle class="cls-2" cx="609.67" cy="281.61" r="4.39"/><path class="cls-12" d="M728.52,124.83h0a0.52,0.52,0,0,1-.41-0.21c-0.34-.45-8.34-11.1-8.34-15.82a8.75,8.75,0,0,1,17.51,0c0,4.78-8,15.37-8.34,15.82A0.52,0.52,0,0,1,728.52,124.83Z"/><circle class="cls-2" cx="728.33" cy="107.94" r="4.39"/><path class="cls-11" d="M795.32,394.1h0a0.52,0.52,0,0,1-.41-0.21c-0.34-.45-8.34-11.1-8.34-15.82a8.75,8.75,0,0,1,17.51,0c0,4.78-8,15.37-8.34,15.82A0.52,0.52,0,0,1,795.32,394.1Z"/><circle class="cls-2" cx="795.13" cy="377.22" r="4.39"/></svg>